<?xml version="1.0" encoding="utf-8" ?>
<svg xmlns="http://www.w3.org/2000/svg" xmlns:xlink="http://www.w3.org/1999/xlink" width="939" height="1149">
	<path fill="#F1F1ED" transform="scale(1.39722 1.39722)" d="M0 0L672 0L672 821.298C671.536 821.561 671.137 821.795 670.602 821.888C667.017 822.509 662.592 821.998 658.902 821.999L631.883 822.001L534.011 822.007L177.07 822.01L60.3577 822.004L22.1256 822.001C15.516 822.001 8.79038 822.256 2.19475 821.952C1.30318 821.911 0.774922 821.74 0 821.298L0 0Z"/>
	<path fill="#3A2A28" transform="scale(1.39722 1.39722)" d="M271.31 123.793C295.414 122.636 321.581 130.907 341.854 143.716C348.666 148.02 354.852 153.226 361.212 158.155C352.03 165.101 342.998 172.91 334.722 180.908C334.212 183.765 333.685 186.667 332.954 189.477C329.157 204.075 319.21 213.31 306.624 220.728C300.409 235.587 291.823 247.307 276.6 253.828C270.452 256.462 264.154 259.012 258.96 263.347C254.523 267.05 252.535 272.023 249.034 276.402C246.261 279.869 241.642 282.768 237.853 285.058C232.589 288.238 226.617 290.753 220.703 292.484C218.294 293.189 214.963 293.194 212.847 294.498C209.548 296.531 207.106 300.019 204.331 302.691C193.893 312.742 180.517 316.84 166.306 316.533C156.653 324.587 146.357 330.637 134.866 335.722C134.539 346.309 134.799 356.89 134.828 367.478Q134.818 396.438 135.12 425.394L136.082 569.046L140.756 570.462C143.765 565.632 147.856 559.536 149.437 554.061C151.175 548.039 151.401 535.916 152.017 529.14L157.162 474.823C156.976 474.657 156.794 474.485 156.6 474.326C156.165 473.969 155.697 473.672 155.332 473.231C154.208 471.871 153.674 469.427 153.899 467.704C154.281 464.771 155.886 463.052 158.033 461.261L158.114 454.601L155.36 454.819C152.834 455.005 149.522 455.508 147.514 453.593C146.157 452.298 145.865 450.284 145.777 448.502C145.672 446.387 145.923 443.964 147.517 442.405C150.377 439.608 157.274 440.747 160.956 440.89L161.488 435.339C161.09 434.82 160.689 434.292 160.358 433.727C159.389 432.067 158.914 429.607 159.5 427.751C161.496 421.43 174.648 420.776 179.148 418.356C179.525 417.413 179.979 416.865 179.656 415.879C179.166 415.825 178.461 415.814 178.011 415.629C177.557 415.442 177.341 415.256 177.217 414.806C176.215 411.165 176.041 403.49 178.091 400.272C178.799 399.161 179.843 398.357 181.166 398.164C182.452 397.977 183.717 398.308 184.698 399.171C186.237 400.522 186.701 402.658 186.862 404.615C187.071 407.152 187.411 413.27 185.731 415.254C184.84 415.41 184.148 415.525 183.366 416.021L183.247 416.885C183.371 417.202 183.548 417.926 183.748 418.163C185.501 420.241 198.555 421.765 201.806 426.269Q201.953 426.471 202.079 426.686Q202.205 426.902 202.308 427.129Q202.412 427.356 202.492 427.592Q202.572 427.829 202.628 428.072Q202.684 428.315 202.715 428.563Q202.746 428.811 202.752 429.06Q202.758 429.31 202.738 429.559Q202.719 429.807 202.675 430.053C202.399 431.649 201.783 433.212 200.397 434.128C199.772 434.54 199.339 434.89 198.82 435.431C198.167 437.15 198.56 439.209 198.687 441.016C204.999 440.979 207.597 439.972 213.318 437.533C216.09 438.163 219.231 438.619 221.849 439.729C223.642 440.489 225.244 441.639 225.911 443.54C226.348 444.782 226.393 446.092 225.77 447.28C223.348 451.897 215.007 451.677 210.504 452.562C208.088 453.037 205.764 453.844 203.441 454.648L203.565 462.178C205.397 464.42 206.86 467.397 206.51 470.372C206.241 472.662 205.485 473.601 203.716 475.015C205.824 493.025 207.166 511.339 208.538 529.426C209.093 536.754 209.193 544.279 210.109 551.557C210.719 556.403 214.001 559.924 215.43 564.429C216.909 569.088 216.261 575.356 216.436 580.283C217.939 581.3 219.11 582.451 220.367 583.746C220.935 592.479 220.533 601.507 220.592 610.272L224.399 610.904C228.097 605.569 232.143 600.417 236.012 595.2L231.569 589.992C234.503 585.639 237.983 581.735 240.674 577.197C237.859 575.988 231.865 574.818 230.279 572.232C230.963 565.182 233.316 557.833 234.928 550.905C237.279 540.799 239.32 530.569 241.911 520.53C245.716 517.628 250.298 515.324 254.501 513.031C257.141 513.753 259.749 514.651 262.36 515.475C268.122 504.847 267.753 504.274 267.287 492.362C264.407 492.207 260.657 492.446 258.291 490.625C256.728 487.364 256.815 455.363 256.8 449.532C256.713 415.781 259.704 374.593 280.151 346.355C282.821 342.668 285.932 338.899 289.304 335.811C291.513 333.788 294.076 331.974 296.038 329.705C299.983 325.141 301.554 320.315 306.31 315.537C308.158 316.302 309.919 317.271 311.695 318.189C316.013 311.248 320.919 304.649 327.258 299.425C329.808 297.322 333.212 295.704 335.433 293.271C337.368 291.151 338.17 287.989 340.068 285.704C346.25 278.265 354.737 273.609 363.777 270.551C365.628 269.925 367.707 269.094 369.668 268.989C370.658 268.935 371.149 268.988 371.896 269.633C371.77 272.851 370.643 276.203 369.97 279.352Q368.66 285.485 367.976 291.718C372.68 291.712 389.156 290.841 392.166 293.622C392.671 294.088 392.532 294.21 392.567 294.847C391.327 296.981 382.062 300.79 379.351 302.282C386.221 314.956 382.522 316.811 380.722 329.758C380.163 333.783 382.726 339.255 380.513 342.831C380.039 343.595 378.526 343.834 377.751 344.272C373.752 346.536 371.17 349.373 366.273 349.934C362.578 350.356 360.387 349.56 357.539 347.391Q351.125 347.765 344.819 348.997C345.657 350.894 346.616 352.736 347.546 354.588C344.971 358.627 342.87 363.679 339.408 366.999C339.534 370.845 339.707 374.912 340.707 378.642C341.737 382.48 343.411 386.134 343.881 390.107C344.381 394.328 343.813 398.903 343.719 403.175Q343.577 411.933 343.989 420.683C356.455 425.332 370.63 429.018 384.029 427.123C395.955 425.436 406.547 415.811 419.144 419.996Q419.763 420.205 420.358 420.475Q420.953 420.744 421.518 421.072Q422.083 421.4 422.613 421.783Q423.142 422.166 423.63 422.6Q424.119 423.034 424.561 423.514Q425.004 423.995 425.396 424.517Q425.788 425.04 426.126 425.599Q426.464 426.158 426.744 426.748C428.024 429.502 428.159 433.118 426.98 435.945C425.24 440.114 421.065 442.275 417.173 443.991C414.905 443.366 413.2 442.424 411.369 440.988C390.524 449.498 368.6 452.157 346.367 454.573C346.753 464.223 348.364 474.105 349.571 483.695C351.706 500.655 353.695 517.575 355.017 534.619C355.841 545.235 356.692 556.234 355.978 566.871C355.379 575.787 352.201 584.698 350.2 593.4Q343.444 623.067 336.112 652.597C338.191 655.084 340.645 657.996 343.633 659.386C348.932 661.85 354.243 659.739 358.872 664.858C360.278 666.412 360.91 668.215 360.729 670.302C360.546 672.407 359.54 675.607 357.852 676.968C356.695 677.899 355.204 678.339 353.743 678.154C356.034 680.343 366.55 685.977 369.438 686.452C371.41 685.448 372.24 682.696 374.402 681.649C376.877 680.45 380.351 681.561 382.625 680.416C384.32 678.881 385.684 676.943 387.037 675.108C399.273 658.519 409.55 638.386 406.179 617.073C404.928 609.159 401.73 601.276 399.392 593.619C397.18 586.375 395.499 578.589 392.468 571.647C391.321 569.021 389.798 566.368 387.749 564.338C383.899 560.523 378.415 559.797 374.249 556.613C370.611 553.833 367.911 546.65 367.362 542.088C367.152 540.342 367.169 539.072 368.274 537.698C369.678 537.146 371.128 537.507 372.586 537.694C376.261 529.744 379.142 523.818 387.291 519.765C392.095 517.678 394.613 517.503 399.835 518.216L400.299 517.62C400.208 516.907 399.944 516.675 399.457 516.188C398.866 515.599 398.357 515.024 397.841 514.369C397.859 513.91 397.881 513.522 397.979 513.072C398.576 510.34 400.444 504.645 402.903 503.156C405.485 503.777 408.078 511.391 409.252 513.92C412.806 521.576 420.203 525.494 424.178 532.967C427.659 539.511 429.913 554.824 433.464 558.739C434.919 560.343 437.195 560.946 439.278 561.138C445.55 561.716 452.344 560.141 458.597 559.535C470.459 558.384 482.443 557.347 494.363 557.294C502.234 557.259 509.921 557.717 517.706 558.893C522.552 559.625 527.843 561.233 532.715 561.216C539.288 561.193 546.768 557.998 552.264 554.578C585.368 533.98 569.606 500.507 595.393 475.162C604.13 466.574 616.082 461.05 628.494 461.332C631.001 461.389 633.643 461.902 635.385 463.866C636.599 465.235 636.892 467.23 636.675 468.992C636.412 471.133 635.091 472.499 633.135 473.262C630.462 474.306 627.163 474.284 624.332 474.803C613.617 476.768 605.075 481.712 598.927 490.864C593.741 498.585 591.607 507.413 589.788 516.38C583.694 546.42 573.606 557.452 549.905 575.183C557.963 586.893 561.857 598.17 564.706 611.972C565.857 617.547 566.705 623.33 568.772 628.652C570.817 633.915 573.947 637.851 577.823 641.86C586.357 650.686 587.203 660.305 588.341 672.119C588.953 678.478 590.028 688.324 585.465 693.518C583.525 695.726 580.791 696.558 577.946 696.739C574.616 696.952 570.739 696.535 568.211 694.15C566.89 692.903 566.039 691.149 566.061 689.314C566.126 683.942 570.531 683.859 573.464 680.989C573.372 680.086 573.239 679.207 573.075 678.314C570.115 662.195 567.621 660.965 553.023 655.247C546.048 652.515 539.87 649.243 533.691 644.987C529.713 652.716 528.847 659.72 528.459 668.236C528.303 671.649 527.597 675.277 524.877 677.633C521.633 680.442 517.913 682.912 514.43 685.415C504.709 692.403 496.145 698.248 483.627 697.469C481.527 697.338 478.784 697.083 477.387 695.306C475.59 693.02 476.337 689.257 476.602 686.604C474.077 688.004 470.93 688.058 468.096 687.89C465.512 687.737 461.772 687.221 460.067 685.082C459.031 683.784 458.761 681.148 459.055 679.556C459.969 674.612 465.665 675.089 468.885 672.74Q469.204 672.506 469.471 672.214Q469.737 671.921 469.941 671.582Q470.144 671.242 470.275 670.869Q470.407 670.496 470.462 670.104C471.766 660.895 456.765 644.799 451.454 637.07Q445.16 636.56 438.89 635.817Q438.105 637.272 437.292 638.712Q433.268 645.811 428.385 652.349C424.528 657.527 394.308 694.617 389.845 695.864C386.248 697.103 379.089 696.751 375.529 695.579C371.258 694.174 367.251 691.23 363.191 689.255L326.251 671.441Q268.478 643.626 211.958 613.345L168.518 590.572C157.846 584.965 147.322 579.1 136.243 574.314C134.375 576.728 132.623 579.086 131.082 581.73C136.322 585.604 144.518 589.069 150.388 592.197Q176.348 605.889 202.476 619.258L288.566 662.578C309.973 673.484 331.735 685.548 353.73 695.101C354.677 695.513 355.223 695.692 356.266 695.55C355.701 695.878 355.103 696.166 354.454 696.277C349.687 697.092 327.113 697.483 322.474 696.172C315.574 694.22 305.392 688.015 298.52 684.713C268.184 670.137 238.537 654.329 208.656 638.872L143.966 605.388C136.382 601.379 128.316 598.142 121.078 593.529C120.608 575.075 121.172 556.508 121.077 538.04L120.429 394.419L119.773 314.26C119.709 294.542 118.447 274.283 122.547 254.862C128.172 228.218 142.508 202.121 160.369 181.731C184.535 154.144 217.901 132.245 254.372 125.526C259.968 124.495 265.641 124.162 271.31 123.793Z"/>
	<path fill="#F1F1ED" transform="scale(1.39722 1.39722)" d="M376.876 547.292C375.25 547.04 373.627 546.871 372.571 545.436C372.035 544.708 372.106 544.394 372.113 543.529C373.124 541.232 375.313 539.906 376.783 537.935C379.225 534.662 381.195 528.553 385.163 526.887C385.899 526.578 386.296 526.434 387.067 526.755C388.634 527.406 390.086 529.924 391.128 531.276C392.608 533.195 394.316 534.892 395.829 536.774C398.752 540.41 403.677 549.219 409.465 546.91C414.165 545.035 415.638 537.427 417.694 533.254C423.26 541.7 424.713 556.527 428.591 561.547C430.429 563.925 433.323 565.251 436.2 565.87C442.842 567.298 450.665 565.651 457.337 564.881C465.532 563.935 474.46 562.781 482.681 563.325C489.095 567.962 500.741 581.089 509.185 579.552C510.681 579.28 512.217 578.75 513.661 578.269C519.189 584.173 524.663 592.766 533.757 593.063C538.304 593.212 540.824 590.264 544.613 588.541C547.432 589.379 550.253 590.307 553.109 591.009C556.69 598.68 558.732 607.619 560.416 615.891C561.369 620.57 562.09 625.41 563.751 629.896C565.291 634.053 567.446 637.438 570.257 640.843C572.631 643.718 575.406 646.341 577.629 649.321C582.526 655.887 583.027 665.705 583.528 673.644C583.818 678.242 584.618 683.776 582.95 688.185C582.423 689.577 581.422 691.058 580.025 691.693C578.363 692.449 576.459 692.199 574.832 691.477C573.379 690.832 572.53 690.078 571.928 688.613C572.028 687.582 572.053 687.615 572.805 686.892C574.52 686.353 577.432 686.858 578.337 685.152C580.23 681.582 576.907 670.803 575.577 667.103C573.966 662.621 570.879 657.305 566.398 655.177C559.136 651.728 551.561 649.834 544.562 645.632C536.322 640.685 529.491 633.949 521.435 628.886C517.908 626.669 514.273 624.838 510.094 624.303C500.522 623.079 487.921 626.883 478.441 628.831C473.974 629.749 469.242 630.406 464.89 631.742C459.956 626.667 455.502 613.864 446.907 613.823C446.065 613.819 445.447 614.077 444.861 614.685C442.275 617.372 434.628 633.923 431.677 638.59C421.447 654.763 406.771 671.043 393.56 684.96C392.377 686.206 389.079 690.324 387.483 690.708C387.396 690.729 387.306 690.723 387.217 690.731C384.558 691.701 378.76 691.565 376.104 690.353C375.553 690.102 375.253 689.773 374.877 689.314C374.744 688.359 374.775 687.777 375.371 686.953C376.052 686.01 377.05 685.736 378.169 685.654C380.179 685.507 382.762 686.318 384.612 685.863C389.056 684.073 403.513 659.361 405.997 653.598C411.14 641.664 413.534 625.217 410.693 612.474C409.102 605.339 406.152 598.364 403.964 591.376C401.93 584.882 400.521 578.207 397.984 571.872C396.364 567.824 394.267 564.469 391.649 561.008C388.483 556.822 376.223 554.645 374.663 550.028C375.264 549.387 375.291 549.42 376.17 549.3C379.117 549.613 381.14 549.541 383.938 548.426C383.88 548.129 383.899 547.823 383.677 547.608C381.381 546.856 379.246 547.186 376.876 547.292Z"/>
	<path fill="#3A2A28" transform="scale(1.39722 1.39722)" d="M382.508 533.862C383.221 533.821 383.935 533.784 384.65 533.789C386.825 533.804 388.796 534.587 390.322 536.132C390.622 536.971 390.826 537.319 390.619 538.213C390.259 539.765 388.817 540.454 387.573 541.237C386.738 541.962 386.488 542.257 385.384 542.5C384.746 542.279 384.177 542.093 383.656 541.646C382.268 540.456 381.569 538.602 381.425 536.812C381.324 535.554 381.732 534.807 382.508 533.862Z"/>
	<path fill="#F1F1ED" transform="scale(1.39722 1.39722)" d="M186.824 169.237C188.081 170.434 196.742 194.068 198.392 197.727C205.549 213.604 212.976 229.483 220.902 244.989C226.257 255.467 232.132 265.719 237.319 276.275Q235.084 277.753 232.741 279.052Q230.398 280.352 227.96 281.465Q225.523 282.577 223.006 283.496Q220.489 284.416 217.908 285.136C214.807 286.013 210.425 286.002 207.734 287.699C205.195 289.3 203.372 292.261 201.353 294.462C199.649 296.32 197.73 298.037 195.768 299.617C186.188 307.333 176.58 309.603 164.522 308.339C160.739 310.258 157.5 313.533 154.121 316.091C148.728 320.173 142.303 323.841 136.025 326.365C134.697 323.445 133.845 320.157 132.952 317.072C128.411 301.383 127.505 285.976 128.752 269.732C130.038 240.602 146.606 210.608 164.924 188.714C170.54 182.001 176.797 176.119 182.906 169.884C179.706 179.043 177.582 188.153 176.987 197.86C175.792 217.368 179.832 249.21 193.088 264.213C191.508 256.179 188.724 248.492 187.071 240.498C182.205 216.971 182.747 192.836 186.824 169.237Z"/>
	<path fill="#F1F1ED" transform="scale(1.39722 1.39722)" d="M271.117 131.825C298.683 131.14 326.374 141.185 348.178 157.924C345.936 160.198 343.648 162.394 341.171 164.415C337.527 167.389 332.089 170.441 329.464 174.277C327.259 177.499 326.93 182.441 325.887 186.171C324.877 189.785 323.52 193.3 321.632 196.549C318.106 202.616 313.162 207.142 307.259 210.851C305.213 212.136 302.57 213.463 300.991 215.321C299.202 217.426 298.171 220.076 297.013 222.554C294.115 228.757 290.935 233.898 285.752 238.454C262.932 214.683 242.028 194.096 213.784 176.643C207.25 172.521 200.21 168.898 193.395 165.258Q194.44 165.042 195.496 164.891C202.859 163.824 210.526 164.764 217.846 165.722C246.174 169.43 261.601 177.36 284.19 194.116C277.696 183.982 268.406 176.201 257.783 170.685C240.683 161.807 212.12 155.894 193.432 161.79C196.944 158.771 200.963 156.343 204.879 153.893C224.519 141.604 247.827 132.837 271.117 131.825Z"/>
	<path fill="#F1F1ED" transform="scale(1.39722 1.39722)" d="M300.926 333.378C309.208 335.59 317.335 339.275 323.563 345.282C339.948 361.087 328.307 374.378 338.821 390.119C338.914 405.65 338.127 421.152 339.03 436.69C340.096 455.028 342.973 472.987 344.914 491.213C330.595 484.445 316.366 479.61 300.542 477.897C299.786 474.96 299.314 472.087 298.917 469.087C306.752 469.296 315.537 471.909 323.039 473.995C326.906 475.07 331.973 477.309 335.996 477.02C336.989 476.949 337.456 476.786 338.097 476.043L337.799 474.961L337.456 475.448L337.637 474.718C337.575 474.642 337.515 474.564 337.451 474.49C333.765 470.219 305.666 465.494 298.71 465.085Q298.089 459.914 297.734 454.717C303.75 455.456 310.112 457.072 315.957 458.683C317.851 459.205 319.777 460.127 321.669 460.543C322.93 460.82 323.691 460.596 324.784 459.975C325.409 459.118 325.529 459.018 325.574 457.973C322.624 454.146 302.808 451.034 297.475 450.3C297.415 447.278 297.475 444.249 297.492 441.226C305.062 442.488 312.667 443.978 320.079 445.981C322.712 446.692 331.804 449.958 334.097 449.395C335.125 449.142 335.17 448.868 335.631 448.001L335.307 446.962C330.861 442.355 305.467 438.132 298.118 437.275C298.528 434.018 298.938 430.792 299.622 427.577C306.611 428.903 313.405 432.502 320.216 433.57C321.877 433.831 322.384 433.53 323.651 432.575C323.511 432.097 323.253 431.621 323.05 431.164C318.08 426.893 304.47 424.555 298.141 423.537C300.459 423.113 303.072 423.365 305.256 422.465C308.482 421.134 309.353 417.835 310.59 414.868C314.197 416.035 317.738 417.404 321.373 418.493C323.305 419.071 326.1 419.994 327.961 418.988L328.145 417.91C326.754 414.193 317.682 412.746 314.067 411.222C311.729 410.237 310.773 406.84 308.75 404.983C315.945 392.804 322.32 375.794 321.39 361.379C321.02 355.651 319.345 350.456 314.851 346.62C313.814 345.734 312.917 345.07 311.544 345.179C311.231 345.428 311.069 345.522 310.837 345.895C309.234 348.483 314.6 353.375 315.492 356.137C316.313 358.679 316.326 362.058 316.268 364.713C315.974 378.222 310.962 390.364 304.714 402.097C296.576 395.93 289.369 395.352 279.527 395.823C281.503 388.453 282.874 380.938 284.774 373.55C285.552 370.527 287.306 366.987 287.684 364.003C287.895 362.332 287.618 360.732 286.611 359.377C286.175 359.271 285.83 359.048 285.415 359.296C280.728 362.092 274.964 391.778 273.655 397.825C271.733 398.395 269.791 398.848 268.526 400.545C266.409 403.385 266.041 407.408 266.44 410.838C266.924 414.991 268.266 415.659 271.334 418.056C271.667 419.098 271.25 419.623 270.875 420.629C269.403 420.826 267.896 419.866 266.191 420.059C265.799 420.334 265.343 420.494 265.205 420.982C264.987 421.753 265.191 422.766 265.591 423.45C266.254 424.586 268.929 425.004 270.133 425.327C270.07 428.173 269.884 431.024 269.752 433.868C267.37 433.497 264.933 433.317 262.534 433.065Q262.75 421.742 264.208 410.511C268.09 380.116 275.772 352.848 300.926 333.378Z"/>
	<path fill="#3A2A28" transform="scale(1.39722 1.39722)" d="M294.3 352.236C296.713 353.318 299.021 355.043 301.375 356.325C304.759 358.169 308.283 359.696 311.763 361.343C312.854 361.859 314.112 362.258 314.856 363.249C314.967 364.498 314.544 365.11 313.911 366.16C309.238 365.266 304.452 363.002 300.187 360.905C297.531 359.599 293.928 357.991 292.906 355C293.093 353.656 293.494 353.297 294.3 352.236Z"/>
	<path fill="#3A2A28" transform="scale(1.39722 1.39722)" d="M292.053 368.672C295.871 368.798 307.563 373.625 310.244 376.354C310.729 377.588 310.627 377.728 310.328 378.96C309.567 379.014 308.79 379.05 308.034 378.931C304.727 378.411 293.507 374.171 291.926 371.58C291.299 370.554 291.761 369.728 292.053 368.672Z"/>
	<path fill="#3A2A28" transform="scale(1.39722 1.39722)" d="M289.969 382.309Q291.424 382.402 292.817 382.83C296.184 383.901 303.427 386.533 305.055 389.741C305.141 390.898 304.822 391.439 304.244 392.425C301.764 392.003 290.715 387.173 289.178 385.391C288.962 384.209 289.49 383.351 289.969 382.309Z"/>
	<path fill="#3A2A28" transform="scale(1.39722 1.39722)" d="M322.379 395.2C324.418 395.117 326.407 395.736 328.353 396.281C330.42 396.859 332.318 397.65 333.421 399.589C333.607 400.778 333.198 401.425 332.672 402.44Q332.068 402.447 331.468 402.377C328.938 402.094 323.668 400.216 322.297 398.089C321.668 397.114 322.12 396.216 322.379 395.2Z"/>
	<path fill="#F1F1ED" transform="scale(1.39722 1.39722)" d="M245.896 526.731C253.02 529.394 260.598 531.174 267.928 533.192C286.002 538.167 304.547 542.498 322.343 548.367C321.301 553.585 319.721 558.763 318.352 563.907L311.013 591.539L310.511 592.107C308.465 592.367 244.376 572.813 235.926 570.024C238.782 555.55 242.66 541.14 245.896 526.731Z"/>
	<path fill="#F1F1ED" transform="scale(1.39722 1.39722)" d="M282.643 415.103C288.491 414.968 292.169 415.294 296.705 419.394C295.265 423.545 293.94 427.698 293.238 432.049C291.014 445.82 291.668 468.386 295.992 481.614C297.552 486.387 300.698 490.324 302.334 494.966C303.636 498.663 303.865 503.78 304.213 507.702C302.997 508.822 301.237 509.009 299.876 510.066C299.794 510.13 299.713 510.197 299.632 510.262C297.165 510.81 293.009 510.205 290.954 508.818Q290.624 508.596 290.341 508.315C287.236 505.268 289.719 495.224 289.487 491.107C289.185 485.741 286.001 480.542 284.251 475.504C281.031 466.228 277.861 456.886 276.226 447.179C275.114 440.585 273.981 421.966 277.765 417.145C279.036 415.525 280.747 415.42 282.643 415.103Z"/>
	<path fill="#F1F1ED" transform="scale(1.39722 1.39722)" d="M294.005 593.295C296.853 594.059 299.738 594.682 302.613 595.338C301.912 611.064 300.885 627.653 297.237 642.995C298.906 644.624 300.821 646.067 302.62 647.555L301.735 652.257L284.294 643.818C281.147 642.204 277.362 641.248 274.52 639.158C274.882 638.41 275.274 637.64 275.55 636.854C276.266 634.813 276.274 632.733 275.245 630.794C273.397 627.309 269.666 625.876 266.159 624.698C265.094 622.218 264.231 619.634 263.307 617.098C271.926 615.72 287.221 599.595 294.005 593.295Z"/>
	<path fill="#F1F1ED" transform="scale(1.39722 1.39722)" d="M408.773 424.383C411.956 424.182 414.721 423.96 417.683 425.439C419.775 426.483 421.818 428.323 422.468 430.643C422.827 431.925 422.653 433.113 421.949 434.239C420.562 436.457 417.842 437.498 415.418 438.092L415.277 437.88C416.635 436.003 419.148 433.893 419.561 431.573C419.734 430.603 419.472 429.672 418.86 428.907C417.685 427.435 415.665 426.57 413.824 426.388C411.742 426.183 409.395 426.814 407.796 428.192C406.984 428.891 406.535 429.522 406.422 430.607C406.715 431.224 406.755 431.467 407.32 431.901C409.215 433.358 412.088 432.701 414.296 432.493C401.161 441.034 387.602 443.314 372.433 445.908Q359.16 448.1 345.794 449.629C344.707 441.982 344.513 434.187 344.168 426.477C359.398 432.301 378.386 435.042 394.219 430.239C399.114 428.755 403.177 425.422 408.289 424.471L408.773 424.383Z"/>
	<path fill="#F1F1ED" transform="scale(1.39722 1.39722)" d="M495.266 630.7L495.4 630.77C496.632 632.149 496.857 637.976 497.241 640.106C498.817 648.836 503.056 657.788 503.233 666.661C503.311 670.533 501.892 673.836 499.191 676.562C494.786 681.009 488.985 682.724 482.829 682.711C483.677 681.973 484.007 681.043 484.45 680.04C485.025 679.278 485.405 678.643 485.673 677.717C488.885 666.629 478.28 644.627 473.026 634.736C480.499 633.671 487.817 631.866 495.266 630.7Z"/>
	<path fill="#F1F1ED" transform="scale(1.39722 1.39722)" d="M501.066 629.393Q502.775 629.256 504.488 629.179C514.549 628.777 522.814 635.337 529.828 641.81C526.133 646.211 522.213 647.231 517.389 649.828C515.629 650.776 514.007 652.181 513.459 654.169C511.758 660.33 520.585 666.27 523.299 671.067L523.585 671.578C521.752 673.656 506.429 685.706 504.377 686.108C503.021 687.908 500.15 689.213 498.1 690.08C494.443 691.627 485.535 694.407 481.769 692.52C480.947 692.108 480.828 691.685 480.585 690.85C482.187 686.653 490.058 687.17 493.811 685.915Q495.315 685.401 496.742 684.699Q498.168 683.997 499.492 683.119Q500.817 682.24 502.018 681.199Q503.219 680.157 504.277 678.971C506.257 676.757 507.961 674.233 508.538 671.281C510.259 662.479 505.165 651.448 503.101 642.876C502.021 638.391 501.362 633.997 501.066 629.393Z"/>
	<path fill="#F1F1ED" transform="scale(1.39722 1.39722)" d="M255.46 518.622C269.705 522.977 284.365 526.473 298.781 530.226C309.351 532.978 320.141 536.348 330.901 538.212C328.615 539.799 326.559 541.736 324.469 543.57C314.916 540.726 305.179 538.482 295.572 535.823C279.931 531.493 264.374 526.823 248.716 522.573C250.882 521.042 253.096 519.82 255.46 518.622Z"/>
	<path fill="#F1F1ED" transform="scale(1.39722 1.39722)" d="M241.86 599.513C244.248 600.755 246.48 602.929 248.445 604.777C257.941 613.71 256.882 616.838 262.131 627.584L262.389 628.106C264.81 628.959 268.04 629.732 269.947 631.475C270.737 632.198 271.168 633.004 271.143 634.085C271.129 634.715 270.943 634.723 270.539 635.137C267.156 635.634 261.536 632.025 258.393 630.527C255.921 629.177 253.439 627.9 250.888 626.706C250.188 625.388 249.486 624.065 248.726 622.78C246.716 619.383 242.479 613.798 238.418 612.917C237.116 612.634 236.25 612.972 235.149 613.635C234.649 614.327 234.588 614.706 234.59 615.531C234.592 616.184 234.587 616.721 234.439 617.366C232.759 616.963 230.66 615.387 229.131 614.492C230.859 611.973 233.372 609.794 235.413 607.493C237.678 604.94 239.734 602.183 241.86 599.513Z"/>
	<path fill="#F1F1ED" transform="scale(1.39722 1.39722)" d="M309.31 649.249C315.919 651.188 322.632 652.288 329.452 653.155C333.641 657.29 337.905 664.32 344.036 665.49C346.876 666.032 350.032 665.596 352.768 666.607C353.902 667.026 354.506 667.611 354.952 668.724C355.399 669.844 355.606 671.385 354.996 672.481C354.724 672.97 354.464 672.856 353.968 672.936C353.682 673.082 353.561 673.159 353.273 673.257C350.553 674.179 346.86 673.512 344.173 672.691C339.219 671.179 334.429 668.393 329.793 666.087L307.829 655.143L309.31 649.249Z"/>
	<path fill="#F1F1ED" transform="scale(1.39722 1.39722)" d="M465.76 636.348C466.286 636.262 466.798 636.341 467.328 636.38C468.691 637.803 469.726 639.549 470.72 641.243C475.607 649.575 483.089 667.395 480.354 676.667C479.679 678.958 478.292 680.789 476.142 681.872C473.596 683.156 468.29 683.587 465.64 682.617C464.577 682.227 464.462 681.826 464.047 680.817C465.774 677.413 469.883 678.357 472.741 676.422Q473.023 676.228 473.284 676.007Q473.545 675.786 473.783 675.541Q474.02 675.295 474.232 675.026Q474.444 674.758 474.628 674.469Q474.812 674.181 474.966 673.876Q475.12 673.57 475.242 673.251Q475.365 672.932 475.455 672.602Q475.545 672.272 475.602 671.935C477.556 660.729 463.734 645.181 457.556 636.68C460.298 636.648 463.023 636.512 465.76 636.348Z"/>
	<path fill="#F1F1ED" transform="scale(1.39722 1.39722)" d="M301.14 481.909C316.272 484.593 331.513 488.69 345.053 496.168C345.512 499.182 345.959 502.171 346.183 505.214C341.576 503.339 337.281 500.43 332.66 498.47C324.366 494.952 315.605 493.455 306.893 491.385C304.657 488.356 302.651 485.372 301.14 481.909Z"/>
	<path fill="#F1F1ED" transform="scale(1.39722 1.39722)" d="M281.769 401.107C282.755 401.021 283.735 400.992 284.724 400.98C293.602 400.874 300.591 404.212 306.88 410.374C306.009 413.225 304.446 415.665 302.871 418.17C301.462 416.418 300.068 414.884 298.373 413.406C293.548 410.314 288.747 409.125 283.018 409.498C279.726 409.713 277.071 411.581 274.01 412.585C273.169 412.861 272.654 413.112 271.86 412.703C271.27 410.191 271.712 407.154 271.818 404.573C274.882 402.509 278.147 401.589 281.769 401.107Z"/>
	<path fill="#F1F1ED" transform="scale(1.39722 1.39722)" d="M158.564 558.918Q182.134 558.609 205.702 559.039C206.735 560.679 207.473 562.406 208.239 564.18L200.09 564.311L150.817 564.42C151.777 562.407 152.838 560.747 154.205 558.985L158.564 558.918Z"/>
	<path fill="#F1F1ED" transform="scale(1.39722 1.39722)" d="M307.373 321.932C319.919 326.406 336.112 341.663 342.041 353.337Q340.295 356.223 338.406 359.016C336.997 355.49 335.51 352.098 333.393 348.93C326.624 338.801 314.954 331.078 303.037 328.685C304.349 326.301 305.739 324.109 307.373 321.932Z"/>
	<path fill="#F1F1ED" transform="scale(1.39722 1.39722)" d="M334.289 541.77C334.573 543.434 322.164 589.617 320.279 594.357C318.999 594.71 318.086 594.201 316.851 593.811L316.192 593.022C316.278 588.3 318.545 582.571 319.747 577.934L327.66 547.427C329.941 545.614 332.115 543.708 334.289 541.77Z"/>
	<path fill="#F1F1ED" transform="scale(1.39722 1.39722)" d="M213.279 443.074C214.978 442.896 217.657 443.578 219.212 444.291C219.977 444.641 220.14 444.757 220.439 445.498C220.339 445.602 220.249 445.717 220.139 445.811C218.628 447.107 215.211 447.136 213.223 447.44C208.807 448.115 204.365 449.038 199.908 449.373C194.779 449.759 189.536 449.558 184.394 449.557L158.409 449.532C156.75 449.535 155.093 449.96 153.455 449.932C152.412 449.915 152.122 449.598 151.435 448.865C151.269 448.141 151.077 447.51 151.272 446.769C151.618 445.452 156.233 445.98 157.398 445.987L188.986 446.125C194.678 446.121 200.863 446.541 206.477 445.575C208.989 445.142 211.017 444.224 213.279 443.074Z"/>
	<path fill="#F1F1ED" transform="scale(1.39722 1.39722)" d="M160.866 465.743C166.376 465.594 197.96 464.739 200.558 466.945C200.812 467.877 201.175 468.717 200.803 469.661L199.962 469.989C194.001 470.142 163.964 470.992 159.949 469.489L159.654 468.597C159.862 467.363 160.09 466.733 160.866 465.743Z"/>
	<path fill="#F1F1ED" transform="scale(1.39722 1.39722)" d="M262.708 478.015C268.715 478.829 274.908 479.935 280.797 481.356C281.847 484.296 282.91 487.214 283.703 490.237C276.953 488.716 269.738 488.321 262.858 487.583L262.708 478.015Z"/>
	<path fill="#F1F1ED" transform="scale(1.39722 1.39722)" d="M262.49 437.025C264.86 437.516 267.213 437.829 269.616 438.098L270.281 446.144C269.252 445.796 268.074 445.309 266.968 445.384C266.05 445.446 265.596 445.886 265.075 446.564C265.162 447.321 265.176 447.559 265.614 448.183C266.973 450.119 268.943 450.125 271.118 450.496C271.574 452.373 271.945 454.278 272.353 456.166L273.831 460.84C270.074 460.105 266.321 459.266 262.494 459.013C262.393 451.717 262.02 444.309 262.49 437.025Z"/>
	<path fill="#F1F1ED" transform="scale(1.39722 1.39722)" d="M366.4 275.336C366.483 275.478 366.521 275.532 366.568 275.744C367.002 277.701 363.148 291.946 362.353 294.321C361.782 296.025 361 297.619 360.18 299.214C359.123 298.25 358.153 297.141 357.157 296.112L353.104 292.393Q353.375 291.18 353.715 289.985C355.715 283.031 360.241 278.782 366.4 275.336Z"/>
	<path fill="#F1F1ED" transform="scale(1.39722 1.39722)" d="M262.548 463.396L275.065 465.158C276.401 468.861 277.871 472.557 278.748 476.401Q270.937 474.463 262.952 473.464C262.676 470.107 262.609 466.762 262.548 463.396Z"/>
	<path fill="#F1F1ED" transform="scale(1.39722 1.39722)" d="M174.281 424.354C184.008 423.718 190.641 424.88 199.353 429.386C195.963 429.822 192.587 429.815 189.176 429.837C180.666 429.829 172.063 430.109 163.605 429.04Q168.793 426.356 174.281 424.354Z"/>
	<path fill="#F1F1ED" transform="scale(1.39722 1.39722)" d="M370.863 308.959C372.351 309.944 373.26 311.541 374.074 313.089C375.886 316.537 376.731 321.384 375.439 325.11C374.957 326.5 374.383 327.529 373.069 328.188C372.195 327.117 372.401 324.791 371.983 323.366C371.604 322.075 371.048 321.363 369.895 320.705C368.905 320.679 368.533 320.608 367.669 321.171C366.314 322.053 366.052 323.59 365.739 325.064C366.519 326.535 367.25 327.108 368.67 327.864L369.12 328.099L369.165 328.54C368.68 328.689 368.291 328.778 367.781 328.684C366.664 328.478 365.857 328.029 365.26 327.023C364.597 325.904 364.723 323.13 364.993 321.901C365.258 320.696 365.824 319.666 366.931 319.045C368.99 317.889 371.688 318.88 373.768 319.505C373.814 319.394 373.874 319.288 373.905 319.171C374.629 316.44 371.993 311.323 370.863 308.959Z"/>
	<path fill="#F1F1ED" transform="scale(1.39722 1.39722)" d="M308.167 499.196C309.965 500.093 310.869 502.054 311.815 503.723C310.742 511.528 309.559 519.819 307.1 527.316C306.155 527.332 306.12 527.348 305.363 526.793C304.932 521.944 308.126 512.45 308.733 507.035C309.024 504.44 308.244 502.105 308.173 499.539C308.169 499.425 308.169 499.311 308.167 499.196Z"/>
	<path fill="#F1F1ED" transform="scale(1.39722 1.39722)" d="M277.726 492.215C278.258 492.435 278.672 492.707 279.153 493.02C279.862 495.141 274.208 515.76 272.951 518.782C272.204 518.437 271.713 518.118 271.113 517.554C271.015 513.741 276.144 496.506 277.726 492.215Z"/>
	<path fill="#F1F1ED" transform="scale(1.39722 1.39722)" d="M183.308 434.901L191.661 434.722C191.681 436.367 191.952 438.318 190.948 439.668L189.577 439.824L181.428 439.85C181.258 438.439 181.043 437.099 181.252 435.68C182 434.86 182.236 435.002 183.308 434.901Z"/>
	<path fill="#F1F1ED" transform="scale(1.39722 1.39722)" d="M168.765 434.856C171.303 434.779 174.673 433.926 176.878 435.335C177.775 436.543 177.489 438.11 177.452 439.548C174.917 439.471 171.523 440.344 169.352 438.871C168.478 437.648 168.719 436.291 168.765 434.856Z"/>
	<path fill="#F1F1ED" transform="scale(1.39722 1.39722)" d="M346.878 327.592C350.621 328.07 355.473 329.992 358.544 332.178C360.17 333.335 360.707 334.139 361.071 336.097C358.083 334.308 348.07 330.041 346.878 327.592Z"/>
	<path fill="#3A2A28" transform="scale(1.39722 1.39722)" d="M157.698 653.914C166.541 662.084 173.871 671.114 185.414 675.78C191.689 678.316 198.928 678.742 205.224 676.041C214.431 672.092 219.586 663.219 223.127 654.322C230.264 661.792 237.857 668.673 246.82 673.915C251.797 676.825 266.612 684.486 271.839 683.119C267.48 685.797 260.295 685.096 255.439 684.123C249.857 683.005 239.614 679.576 236.299 674.627C236.202 674.625 236.103 674.637 236.007 674.62C233.811 674.245 228.11 667.775 226.288 665.848Q224.314 669.058 221.831 671.894C215.688 678.92 207.542 684.046 198.052 684.591C183.225 685.444 171.096 675.721 160.664 666.439C158.107 670.029 155.589 673.537 152.206 676.418C144.545 682.944 134.185 685.645 124.264 684.723C111.396 683.527 99.5425 675.091 91.5438 665.357C88.0996 673.037 79.3442 679.105 71.9526 682.541C67.3606 684.676 57.8939 688.52 52.8421 686.704C54.7609 686.969 56.429 686.03 58.1257 685.245C71.2638 679.166 82.4812 667.646 87.5166 654.04C95.7748 661.831 103.121 669.817 113.522 674.848C120.832 678.384 129.719 679.811 137.523 677.02C148.043 673.257 153.247 663.4 157.698 653.914Z"/>
	<path fill="#3A2A28" transform="scale(1.39722 1.39722)" d="M149.272 618.118C160.425 626.108 169.231 636.419 181.715 642.748C188.2 646.036 195.122 647.461 201.698 650.327L202.17 650.536C200.578 651.292 198.856 651.93 197.116 652.242C185.197 654.383 174.021 646.277 164.838 639.784C160.751 636.882 157.174 633.3 153.58 629.827C151.232 633.707 148.581 637.245 145.116 640.197C137.434 646.743 127.155 650.262 117.063 649.43C104.006 648.352 93.0428 639.831 84.855 630.172C74.8435 644.514 63.3154 648.967 46.8461 652.896C62.9646 643.56 73.749 636.651 80.9367 618.374C90.115 627.47 98.683 637.745 111.486 641.841C118.765 644.17 126.242 643.586 133.023 640.012C141.815 635.378 146.406 627.268 149.272 618.118Z"/>
	<path fill="#3A2A28" transform="scale(1.39722 1.39722)" d="M74.2685 582.565C76.7973 584.778 78.9027 587.872 81.2439 590.336C88.0311 597.481 96.7903 603.895 105.865 607.714C111.16 609.942 117.518 610.462 122.247 612.716L122.371 613.269C120.831 614.607 117.4 614.842 115.409 614.988C102.988 615.899 93.1831 608.724 84.2776 601.03C82.0738 599.013 80.0761 596.842 78.0618 594.641C68.928 607.199 56.4272 612.975 41.5021 616.01C56.4343 607.211 67.9062 599.662 74.2685 582.565Z"/>
	<path fill="#3A2A28" transform="scale(1.39722 1.39722)" d="M65.1245 548.073C72.6236 555.267 78.777 562.292 88.1777 567.262C90.619 568.553 93.211 570.004 95.7996 570.966C99.2977 572.265 108.197 573.196 110.153 576.141L109.619 576.891C107.938 577.705 106.19 578.211 104.322 578.33C93.9694 578.985 81.7521 571.071 74.1357 564.692C72.3533 563.076 70.7535 561.194 69.1159 559.429C61.9087 572.452 49.357 577.565 35.7654 581.533C49.747 571.206 59.084 565.402 65.1245 548.073Z"/>
</svg>
