<?xml version="1.0" encoding="utf-8" ?>
<svg xmlns="http://www.w3.org/2000/svg" xmlns:xlink="http://www.w3.org/1999/xlink" width="1024" height="1024">
	<path fill="#F6E5CC" d="M0 0L1024 0L1024 1024L0 1024L0 0Z"/>
	<path fill="#144C89" d="M818.934 291.595C824.494 291.667 830.807 291.576 836.178 293.198L840.114 293.707C855.659 296.823 872.215 305.818 881.114 319.288C884.61 324.58 889.651 334.785 888.379 341.224C888.162 342.322 887.658 343.339 887.161 344.33C886.966 347.759 886.937 350.099 889.356 352.749C892.892 356.622 898.459 358.463 902.672 361.57C913.633 363.93 932.206 381.94 938.22 391.185C944.13 400.269 949.01 410.65 952.393 420.949C957.428 436.278 960.099 452.764 962.575 468.684Q967.087 499.101 969.216 529.777Q971.345 560.453 971.077 591.202C971.082 633.537 968.964 676.209 959.958 717.689L957.999 726.507L991.264 726.652C997.785 726.649 1004.7 726.209 1011.17 726.938C1013.09 726.791 1016.33 726.129 1017.91 727.436C1018.69 728.082 1018.61 728.148 1019.04 729.02L1018.74 730.126C1015.75 731.422 963.791 730.806 956.966 730.714C953.189 742.607 950.434 754.519 945.531 766.056C927.165 809.276 896.277 842.839 857.845 869.216C847.766 876.134 837.565 882.684 826.699 888.306C735.423 935.538 624.215 947.979 522.718 947.989C507.053 947.991 474.104 948.717 460.739 944.503C454.591 942.565 449.443 938.748 446.505 932.911C439.096 918.193 445.502 891.239 450.639 876.617Q451.71 873.643 452.878 870.707Q454.045 867.77 455.308 864.872Q456.571 861.975 457.928 859.121Q459.285 856.266 460.734 853.458Q462.184 850.649 463.724 847.889Q465.265 845.13 466.894 842.422Q468.524 839.714 470.241 837.06Q471.959 834.407 473.762 831.811Q475.565 829.215 477.452 826.68Q479.339 824.144 481.307 821.672Q483.276 819.199 485.324 816.793Q487.373 814.386 489.499 812.047Q491.625 809.708 493.826 807.44Q496.027 805.172 498.301 802.977Q500.575 800.783 502.92 798.663Q505.264 796.544 507.677 794.502C511.924 790.845 516.228 786.942 520.863 783.786L486.379 777.228C477.751 775.615 468.747 773.505 459.972 773.131C456.08 772.965 452.387 773.449 448.57 774.148C445.558 781.378 443.92 788.99 442.183 796.602C434.758 829.127 431.344 863.082 428.045 896.244C427.144 905.294 426.995 914.881 425.551 923.813L417.268 924.112C419.192 933.596 429.226 976.606 425.447 983.648C424.343 985.705 420.997 986.572 418.878 986.877C413.849 987.602 408.231 987.108 403.135 987.099L372.905 987.059L325.76 987.162C315.094 987.274 304.204 987.857 293.558 987.396C291.141 987.291 288.435 987.277 286.446 985.73C284.553 984.258 283.6 980.817 283.46 978.525C283.302 975.941 284.097 972.835 285.896 970.907C287.172 969.539 288.88 969.138 290.662 968.88C293.627 961.863 297.569 957.643 304.764 954.783C309.965 952.716 315.496 951.775 320.966 950.727C341.678 946.76 357.662 943.707 368.52 923.585C366.92 923.406 364.909 923.434 363.635 922.392C362.756 916.183 364.722 900.161 365.16 893.165Q366.906 865.36 368.318 837.536C368.755 828.779 369.529 819.939 369.529 811.177C337.355 830.697 306.654 852.482 275.993 874.274C268.452 879.634 260.874 884.953 253.4 890.405C249.777 893.048 246.325 895.987 242.578 898.446C241.489 900.007 238.504 901.121 236.808 901.946C234.715 899.943 232.578 898.05 230.348 896.201C226.185 903.453 221.63 910.484 217.467 917.751C212.472 926.469 207.795 935.533 202.524 944.073C199.838 948.424 196.752 949.213 192.062 950.328C190.61 949.789 189.152 949.135 187.852 948.287C181.271 943.993 174.923 939.129 168.541 934.533Q142.94 915.863 117.666 896.753C108.784 890.122 85.0145 873.718 78.967 866.616C77.397 864.772 76.8411 862.338 77.0644 859.957C77.261 857.861 78.0698 855.631 79.83 854.364C82.5613 852.398 87.0196 851.681 90.2759 850.848C112.298 845.216 121.215 859.365 138.325 869.212C144.742 872.905 152.136 875.156 159.482 875.976C173.812 877.577 186.981 874.395 198.302 865.388C197.055 864.142 195.948 862.768 194.816 861.419C195.261 859.715 196.226 858.89 197.555 857.878C201.223 853.995 205.845 850.55 209.874 846.993L233.815 825.507Q264.202 797.914 295.045 770.831C310.292 757.51 325.842 744.527 340.963 731.066C342.763 729.875 344.184 728.558 345.683 727.01C354.422 720.392 362.525 712.622 371.04 705.674C371.446 692.029 372.875 678.318 373.997 664.708C375.353 648.266 376.153 630.915 380.11 614.872C382.209 606.364 385.388 597.289 390.745 590.245C397.463 581.413 406.318 577.943 417.036 576.537C416.001 573.04 412.445 567.421 412.556 564.027C412.588 563.041 413.209 562.037 413.936 561.412C415.117 560.398 416.664 559.878 418.225 560.088C419.683 560.284 420.567 561.072 421.415 562.201C424.088 565.761 425.359 570.29 427.829 574.017C437.798 589.052 448.001 604.117 458.811 618.558C482.966 620.986 508.728 625.907 532.868 629.78L555.007 633.316C559.418 634.019 564.16 634.432 568.421 635.771C574.719 637.75 582.936 658.148 586.07 664.348Q595.156 664.864 604.159 666.19Q613.162 667.517 622.01 669.643C634.167 662.642 646.232 654.016 656.998 645.037C663.542 639.579 669.658 633.678 676.425 628.48Q666.682 616.46 657.205 604.23C653.027 598.914 648.87 592.736 643.669 588.366C639.52 584.879 634.31 582.684 629.653 579.965C624.738 577.096 619.97 573.489 615.681 569.757C611.746 566.333 607.63 562.265 605.001 557.716C600.254 549.503 601.964 536.864 601.094 527.63C600.274 518.93 595.889 514.35 598.337 504.539C598.486 501.586 599.383 499.641 600.814 497.064C598.922 492.22 587.625 470.871 587.819 467.878C587.864 467.192 589.188 466.357 589.713 465.903C591.164 464.81 592.681 463.804 594.177 462.773C595.736 461.466 597.078 460.07 599.129 459.66C600.936 460.098 601.601 460.807 602.596 462.371C607.754 470.479 616.344 494.643 621.48 499.785C641.935 505.677 648.805 508.237 662.566 525.357C665.315 528.778 666.918 533.368 670.185 536.307C673.872 539.624 679.062 541.346 683.173 544.143C689.893 548.713 696.173 554.004 702.827 558.701C703.799 557.113 704.593 555.64 706.086 554.492C709.6 555.619 716.812 561.716 720.783 563.981L721.494 564.382C729.713 548.993 736.619 532.938 744.649 517.462C748.516 510.006 753.667 503.156 757.363 495.667C758.964 492.423 757.424 488.992 759.198 485.533C763.549 477.05 775.143 466.988 784.323 464.121C784.444 458.754 784.46 453.38 784.524 448.012Q782.198 448.44 779.846 448.694C775.131 449.19 769.996 448.189 766.34 445.017C764.126 443.097 762.587 440.402 762.417 437.444C762.186 433.418 764.001 430.262 766.668 427.45C765.814 427.316 764.902 427.195 764.085 426.906C762.81 426.456 762.064 425.652 761.521 424.44C761.491 422.293 762.429 421.001 763.827 419.469C765.042 418.138 766.144 416.761 767.248 415.337C765.019 414.736 762.667 414.207 760.937 412.573C760.011 411.699 759.356 410.568 759.442 409.252C759.582 407.126 761.198 405.68 762.608 404.287C760.35 403.654 757.836 403.558 755.505 403.299C754.01 403.123 751.8 402.94 750.587 401.936C749.599 401.118 749.235 400.512 749.266 399.227C749.346 395.911 755.602 384.958 757.275 380.942C760.404 373.435 762.268 367.652 760.326 359.515C759.69 356.847 758.964 354.472 758.945 351.697C758.943 351.511 758.948 351.325 758.95 351.139C759.736 349.585 759.897 347.634 760.222 345.924Q762.84 337.306 766.358 329.015C767.516 327.015 768.377 325.281 768.915 323.026C769.753 320.722 775.054 309.279 776.484 307.051C777.424 305.586 778.626 304.401 779.912 303.241C780.061 303.072 780.198 302.891 780.36 302.735C788.287 295.133 803.11 292.301 813.628 292.003L818.934 291.595Z"/>
	<path fill="#AEBE76" d="M902.672 361.57C913.633 363.93 932.206 381.94 938.22 391.185C944.13 400.269 949.01 410.65 952.393 420.949C957.428 436.278 960.099 452.764 962.575 468.684Q967.087 499.101 969.216 529.777Q971.345 560.453 971.077 591.202C971.082 633.537 968.964 676.209 959.958 717.689L957.999 726.507L991.264 726.652C997.785 726.649 1004.7 726.209 1011.17 726.938C1013.09 726.791 1016.33 726.129 1017.91 727.436C1018.69 728.082 1018.61 728.148 1019.04 729.02L1018.74 730.126C1015.75 731.422 963.791 730.806 956.966 730.714C953.189 742.607 950.434 754.519 945.531 766.056C927.165 809.276 896.277 842.839 857.845 869.216C847.766 876.134 837.565 882.684 826.699 888.306C735.423 935.538 624.215 947.979 522.718 947.989C507.053 947.991 474.104 948.717 460.739 944.503C454.591 942.565 449.443 938.748 446.505 932.911C439.096 918.193 445.502 891.239 450.639 876.617Q451.71 873.643 452.878 870.707Q454.045 867.77 455.308 864.872Q456.571 861.975 457.928 859.121Q459.285 856.266 460.734 853.458Q462.184 850.649 463.724 847.889Q465.265 845.13 466.894 842.422Q468.524 839.714 470.241 837.06Q471.959 834.407 473.762 831.811Q475.565 829.215 477.452 826.68Q479.339 824.144 481.307 821.672Q483.276 819.199 485.324 816.793Q487.373 814.386 489.499 812.047Q491.625 809.708 493.826 807.44Q496.027 805.172 498.301 802.977Q500.575 800.783 502.92 798.663Q505.264 796.544 507.677 794.502C511.924 790.845 516.228 786.942 520.863 783.786C526.669 784.258 532.447 785.647 538.149 786.817C551.725 789.745 565.573 791.656 579.234 794.18C593.278 796.775 608.064 800.498 622.307 801.276C624.971 800.952 627.566 800.228 630.168 799.589C636.478 798.839 642.881 797.2 649.1 795.854C670.41 791.242 692.914 785.877 712.553 776.165C713.916 775.775 715.084 774.731 716.223 773.913Q723.312 769.695 730.325 765.351C795.968 724.147 830.071 650.327 856.454 580.285C864.805 558.115 873.73 535.247 879.027 512.115C880.579 508.834 881.369 505.068 882.119 501.535C881.094 492.26 880.793 481.137 877.525 472.394C877.551 471.865 877.744 471.253 877.859 470.733C880.068 469.983 884.102 474.331 891.381 472.094C891.434 472.04 891.489 471.989 891.539 471.933C893.755 469.456 894.465 467.959 894.364 464.642L890.267 460.405C890.076 459.818 889.943 459.232 889.805 458.631C893.123 457.158 898.415 460.002 901.728 461.181C901.947 457.213 902.8 454.067 904.37 450.471C906.019 448.29 907.849 448.038 910.355 447.3C911.218 445.776 912.77 444.479 913.74 442.937C915.49 440.156 916.76 436.432 915.902 433.145C914.683 428.479 909.685 426.001 905.802 423.866C902.942 421.45 900.26 418.948 898.391 415.65C891.074 402.739 905.388 394.172 907.995 382.743C909.759 375.011 906.718 367.944 902.672 361.57Z"/>
	<path fill="#8B3724" d="M902.672 361.57C913.633 363.93 932.206 381.94 938.22 391.185C944.13 400.269 949.01 410.65 952.393 420.949C957.428 436.278 960.099 452.764 962.575 468.684Q967.087 499.101 969.216 529.777Q971.345 560.453 971.077 591.202C971.082 633.537 968.964 676.209 959.958 717.689L957.999 726.507L991.264 726.652C997.785 726.649 1004.7 726.209 1011.17 726.938C1013.09 726.791 1016.33 726.129 1017.91 727.436C1018.69 728.082 1018.61 728.148 1019.04 729.02L1018.74 730.126C1015.75 731.422 963.791 730.806 956.966 730.714C953.189 742.607 950.434 754.519 945.531 766.056C927.165 809.276 896.277 842.839 857.845 869.216C847.766 876.134 837.565 882.684 826.699 888.306C735.423 935.538 624.215 947.979 522.718 947.989C507.053 947.991 474.104 948.717 460.739 944.503C454.591 942.565 449.443 938.748 446.505 932.911C439.096 918.193 445.502 891.239 450.639 876.617Q451.71 873.643 452.878 870.707Q454.045 867.77 455.308 864.872Q456.571 861.975 457.928 859.121Q459.285 856.266 460.734 853.458Q462.184 850.649 463.724 847.889Q465.265 845.13 466.894 842.422Q468.524 839.714 470.241 837.06Q471.959 834.407 473.762 831.811Q475.565 829.215 477.452 826.68Q479.339 824.144 481.307 821.672Q483.276 819.199 485.324 816.793Q487.373 814.386 489.499 812.047Q491.625 809.708 493.826 807.44Q496.027 805.172 498.301 802.977Q500.575 800.783 502.92 798.663Q505.264 796.544 507.677 794.502C511.924 790.845 516.228 786.942 520.863 783.786C526.669 784.258 532.447 785.647 538.149 786.817C551.725 789.745 565.573 791.656 579.234 794.18C593.278 796.775 608.064 800.498 622.307 801.276C624.971 800.952 627.566 800.228 630.168 799.589C636.478 798.839 642.881 797.2 649.1 795.854C670.41 791.242 692.914 785.877 712.553 776.165C713.916 775.775 715.084 774.731 716.223 773.913Q723.312 769.695 730.325 765.351C795.968 724.147 830.071 650.327 856.454 580.285C864.805 558.115 873.73 535.247 879.027 512.115C880.579 508.834 881.369 505.068 882.119 501.535C881.094 492.26 880.793 481.137 877.525 472.394C877.551 471.865 877.744 471.253 877.859 470.733C880.068 469.983 884.102 474.331 891.381 472.094C891.434 472.04 891.489 471.989 891.539 471.933C893.755 469.456 894.465 467.959 894.364 464.642L890.267 460.405C890.076 459.818 889.943 459.232 889.805 458.631C893.123 457.158 898.415 460.002 901.728 461.181C901.947 457.213 902.8 454.067 904.37 450.471C906.019 448.29 907.849 448.038 910.355 447.3C910.27 455.418 898.176 488.006 894.974 497.744C888.912 516.18 883.545 534.853 877.425 553.262C871.796 570.194 865.33 587.238 858.604 603.768C852.902 617.78 846.354 631.371 839.857 645.022C806.513 715.085 765.163 771.552 688.332 795.932C667.719 802.473 646.481 806.014 625.643 811.566Q606.811 816.696 588.903 824.458C548.702 841.428 516.549 871.042 492.982 907.429C486.884 916.843 481.053 926.452 476.828 936.872C500.945 937.796 525.199 938.515 549.333 937.941Q591.12 936.531 632.673 931.898C712.699 922.689 795.086 902.837 861.019 854.412C878.492 841.579 894.748 826.858 908.228 809.825C928.265 784.508 940.726 755.154 948.642 723.992C961.317 674.101 961.946 608.813 960.162 557.172C959.37 534.236 958.206 511.029 955.498 488.235C954.22 477.478 952.315 466.784 950.325 456.139C945.274 429.12 938.585 398.614 915.793 380.703C913.755 395.297 907.228 409.017 905.802 423.866C902.942 421.45 900.26 418.948 898.391 415.65C891.074 402.739 905.388 394.172 907.995 382.743C909.759 375.011 906.718 367.944 902.672 361.57Z"/>
	<path fill="#AEBE76" d="M538.149 786.817C551.725 789.745 565.573 791.656 579.234 794.18C593.278 796.775 608.064 800.498 622.307 801.276C611.312 804.542 600.335 807.828 589.691 812.13C546.791 829.469 512.984 858.738 486.653 896.529Q479.397 907.057 473.299 918.297C470.742 923.037 468.522 929.254 465.135 933.408C464.559 933.521 464.453 933.586 463.786 933.472C461.253 933.041 458.122 930.362 456.849 928.215C450.873 918.137 455.846 898.614 458.895 888.035C470.672 847.17 500.895 807.501 538.149 786.817Z"/>
	<path fill="#AEBE76" d="M877.525 472.394C877.551 471.865 877.744 471.253 877.859 470.733C880.068 469.983 884.102 474.331 891.381 472.094C889.502 481.126 886.33 493.381 882.119 501.535C881.094 492.26 880.793 481.137 877.525 472.394Z"/>
	<path fill="#2396C8" d="M450.466 650.239C454.371 659.693 459.248 668.734 463.113 678.265C480.505 682.521 501.514 684.133 519.555 687.076L566.993 694.662C576.915 696.28 586.789 698.584 596.848 699.085C597.758 698.538 598.491 697.884 598.864 696.846C600.63 691.923 589.828 672.757 587.228 667.403C597.548 668.335 608.082 669.354 618.108 672.099C615.055 674.079 611.926 675.993 608.934 678.06C613.498 686.713 617.111 695.862 621.549 704.591C639.851 740.588 660.623 760.089 699.28 772.081C703.655 773.438 708.29 774.516 712.553 776.165C692.914 785.877 670.41 791.242 649.1 795.854C642.881 797.2 636.478 798.839 630.168 799.589C621.781 797.264 612.427 797.176 603.812 795.577C582.45 791.614 560.985 788.09 539.656 783.997L495.043 775.645C481.19 773.079 466.899 769.165 452.734 770.34C432.707 772.003 413.935 780.962 396.683 790.744C352.73 815.665 310.958 845.152 269.941 874.597Q260.261 881.588 250.654 888.679C247.551 890.965 243.473 893.407 240.904 896.222C240.097 896.888 239.274 897.724 238.225 897.95C235.491 898.539 203.903 865.687 199.164 861.982C199.164 861.744 199.13 861.503 199.166 861.267C199.402 859.7 204.13 856.064 205.538 854.757C210.188 852.154 215.149 846.439 219.147 842.83C230.429 832.646 241.587 822.29 253.006 812.263Q311.96 759.562 372.714 708.944C398.395 687.63 421.398 667.056 450.466 650.239Z"/>
	<path fill="#AFD7EA" d="M721.99 607.411C735.925 574.582 749.03 541.644 766.262 510.359C769.093 505.219 771.839 498.631 775.656 494.238C776.945 493.605 778.037 493.998 779.378 494.265C781.573 494.701 794.628 488.237 797.88 486.957C805.468 483.971 813.234 481.089 820.957 478.486C826.464 476.63 832.183 475.11 837.494 472.753C837.698 472.662 837.901 472.568 838.104 472.475C842.79 479.154 848.678 485.57 855.374 490.278C856.82 491.294 858.29 492.436 860.154 492.115C860.277 491.814 860.485 491.534 860.524 491.211C860.614 490.45 856.635 482.422 856.012 480.752C855.2 478.574 854.61 476.287 853.999 474.045C854.918 474.812 855.86 475.639 856.881 476.269C862.885 479.973 869.512 479.225 876 477.643C877.5 489.09 878.948 500.558 879.027 512.115C873.73 535.247 864.805 558.115 856.454 580.285C830.071 650.327 795.968 724.147 730.325 765.351Q723.312 769.695 716.223 773.913C712.905 771.613 700.632 769.154 695.85 767.568C688.892 765.259 682.129 762.643 675.613 759.256C650.502 746.204 636.751 727.306 624.292 702.751C620.314 694.911 616.475 687.152 613.807 678.745C620.944 672.261 630.467 667.863 638.552 662.591C650.729 654.65 661.646 645.806 672.336 635.983C674.816 638.977 677.59 641.637 680.419 644.295C675.105 649.777 670.3 655.689 665.213 661.375C659.888 667.329 654.182 673.032 648.499 678.642Q642.215 684.879 635.572 690.733C632.122 693.757 627.271 697.012 624.56 700.625L624.782 701.788C626.527 702.066 627.732 701.194 629.134 700.195C634.842 696.127 640.077 690.924 645.188 686.146C658.155 674.025 671.559 661.169 681.687 646.495C682.944 647.219 683.799 648.032 684.794 649.06C686.42 650.986 687.542 652.587 690.218 652.856C691.257 652.465 691.832 652.142 692.623 651.361C709.365 669.196 725.961 686.921 748.762 697.005C756.826 700.571 767.967 704.48 776.608 700.927C800.666 691.037 833.828 614.01 843.907 588.376C853.57 563.8 865.61 531.208 854.175 505.467C851.587 499.64 847.939 494.443 841.674 492.214C833.995 489.482 824.851 492.249 817.819 495.713C807.332 500.879 799.444 509.066 793.666 519.144C789.492 526.425 787.744 534.349 785.022 542.198C774.835 571.579 767.102 601.739 756.979 631.132L752.055 629.137C749.091 626.903 746.842 623.738 743.832 621.436C737.089 616.279 729.125 612.08 721.99 607.411Z"/>
	<path fill="#2396C8" d="M836.969 372.522C832.301 369.068 826.678 367.656 821.419 365.339C815.138 362.571 808.974 358.79 803.392 354.814C792.029 346.719 779.443 332.947 777.32 318.572C776.728 314.566 777.62 310.913 780.119 307.714C786.334 299.759 799.175 296.79 808.667 295.588C828.978 293.015 850.984 296.824 867.415 309.593C877.31 317.282 883.783 326.56 885.356 339.118C884.495 344.049 882.816 349.622 885.879 354.136C891.039 361.743 899.934 359.869 903.749 371.194C904.795 374.3 905.302 377.627 904.85 380.89C903.076 393.72 884.309 402.004 896.466 418.973C900.803 425.027 913.677 430.533 912.744 437.167C912.203 441.016 908.827 443.573 906.059 445.92C898.259 444.51 890.434 441.488 885.858 434.593C884.357 432.33 883.286 429.844 882.485 427.256L881.739 426.631C880.711 427.785 880.418 428.535 880.523 430.101C880.825 434.593 883.462 438.276 886.831 441.082C891.239 444.754 897.088 447.465 902.672 448.64C901.779 451.173 899.838 453.775 898.21 455.909C893.974 455.33 884.562 453.995 882.138 449.995C880.776 447.747 880.854 444.594 879.043 442.632C877.695 442.743 877.753 442.953 876.778 443.793C875.749 446.448 876.845 449.075 877.933 451.559C879.891 456.029 882.803 459.871 886.876 462.605C888.949 464.041 890.983 465.341 892.563 467.346L893.302 467.145L894.364 464.642C894.465 467.959 893.755 469.456 891.539 471.933C891.489 471.989 891.434 472.04 891.381 472.094C884.102 474.331 880.068 469.983 877.859 470.733C877.744 471.253 877.551 471.865 877.525 472.394C876.87 473.596 876.581 474.896 875.105 475.2C874.945 475.233 874.779 475.199 874.616 475.199C868.266 475.792 860.403 475.79 855.419 471.163C854.334 470.155 852.985 467.943 851.62 467.656C851.334 467.993 851.159 468.145 851.011 468.614C849.635 472.962 853.107 482.395 854.588 486.567C846.294 478.185 838.412 469.34 834.011 458.217C826.942 440.349 835.821 434.953 838.139 419.356C838.786 414.999 837.742 407.519 839.322 403.847C839.68 403.945 840.261 404.125 840.624 404.121C841.724 404.111 842.562 403.443 843.212 402.623C847.389 397.349 850.811 387.793 849.996 381.109C849.667 378.415 848.613 375.695 846.365 374.038C843.502 371.928 840.31 371.935 836.969 372.522Z"/>
	<defs>
		<linearGradient id="gradient_0" gradientUnits="userSpaceOnUse" x1="860.11432" y1="432.03833" x2="884.85297" y2="473.56616">
			<stop offset="0" stop-color="#002559"/>
			<stop offset="1" stop-color="#004073"/>
		</linearGradient>
	</defs>
	<path fill="url(#gradient_0)" d="M874.616 475.199C868.686 467.627 860.619 453.418 858.844 443.946C858.256 440.808 856.789 435.246 857.765 432.19C857.826 432 857.929 431.826 858.011 431.644L857.575 432.606L858.972 432.331C861.964 436.872 861.973 444.516 864.686 449.866C868.455 457.295 876.668 466.417 884.84 468.785C887.839 469.654 889.915 468.769 892.563 467.346L893.302 467.145L894.364 464.642C894.465 467.959 893.755 469.456 891.539 471.933C891.489 471.989 891.434 472.04 891.381 472.094C884.102 474.331 880.068 469.983 877.859 470.733C877.744 471.253 877.551 471.865 877.525 472.394C876.87 473.596 876.581 474.896 875.105 475.2C874.945 475.233 874.779 475.199 874.616 475.199Z"/>
	<path fill="#144C89" d="M855.44 340.373C856.02 340.383 856.901 340.343 857.473 340.544C861.132 341.831 864.877 347.644 866.85 350.795C872.922 360.494 878.357 375.77 875.74 387.252C874.979 387.221 874.66 387.109 873.973 386.828C871.45 380.224 872.879 372.308 870.179 365.511C868.508 361.306 866.569 357.094 864.21 353.228C862.455 350.35 855.719 342.942 855.44 340.373Z"/>
	<path fill="#2396C8" d="M824.136 369.949C827.611 371.038 830.907 372.415 834.249 373.857C831.682 376.366 830.738 377.577 830.308 381.151L830.138 382.249L830.03 388.127C829.981 392.496 829.986 396.726 830.648 401.057C831.006 411.559 833.369 415.515 825.292 424.142C815.102 435.025 791.598 444.949 776.793 445.141C773.825 445.179 770.543 444.582 768.351 442.414C766.832 440.913 765.742 438.669 765.786 436.511C765.855 433.093 768.727 429.909 770.834 427.456L770.637 426.044C769.323 426.557 768.03 427.077 766.668 427.45C765.814 427.316 764.902 427.195 764.085 426.906C762.81 426.456 762.064 425.652 761.521 424.44C761.491 422.293 762.429 421.001 763.827 419.469C765.042 418.138 766.144 416.761 767.248 415.337C765.019 414.736 762.667 414.207 760.937 412.573C760.011 411.699 759.356 410.568 759.442 409.252C759.582 407.126 761.198 405.68 762.608 404.287C762.98 406.662 760.412 407.475 760.87 409.632C761.766 410.04 762.624 410.526 763.602 410.673C763.385 410.364 762.936 409.763 762.808 409.423C762.597 408.862 762.622 408.292 762.985 407.823C763.913 406.624 765.383 406.357 766.791 406.127C768.683 405.818 770.524 405.406 772.391 404.974C775.151 406.949 777.874 408.388 781.259 408.945C788.254 410.097 795.134 407.761 800.795 403.72C809.058 397.822 818.986 387.103 822.564 377.476C823.437 375.126 823.731 372.42 824.136 369.949Z"/>
	<path fill="#01284E" d="M762.608 404.287C762.98 406.662 760.412 407.475 760.87 409.632C761.766 410.04 762.624 410.526 763.602 410.673C766.23 411.337 769.096 411.663 770.732 414.049C770.827 415.873 770.359 416.9 769.125 418.241C767.562 419.941 765.746 421.469 764.027 423.012C766.135 423.882 768.837 424.656 770.637 426.044C769.323 426.557 768.03 427.077 766.668 427.45C765.814 427.316 764.902 427.195 764.085 426.906C762.81 426.456 762.064 425.652 761.521 424.44C761.491 422.293 762.429 421.001 763.827 419.469C765.042 418.138 766.144 416.761 767.248 415.337C765.019 414.736 762.667 414.207 760.937 412.573C760.011 411.699 759.356 410.568 759.442 409.252C759.582 407.126 761.198 405.68 762.608 404.287Z"/>
	<path fill="#144C89" d="M808.357 410.43C808.429 410.515 808.515 410.59 808.574 410.685C808.887 411.194 808.899 411.704 808.819 412.277C808.1 417.428 803.284 422.097 799.279 425.122C794.804 428.501 790.69 430.306 785.046 429.519C784.477 429.252 784.383 428.986 784.02 428.489C785.862 426.609 790.585 426.695 793.185 425.271C799.31 421.917 803.967 415.718 808.357 410.43Z"/>
	<path fill="#144C89" d="M798.384 415.884C799.117 416.469 799.063 416.582 799.385 417.412C799.107 417.987 799.087 418.108 798.596 418.657C795.403 422.231 789.528 423.943 784.956 424.162C784.52 423.345 784.379 422.867 784.194 421.982C785.556 419.722 790.795 419.719 793.272 418.701C795.036 417.975 796.742 416.853 798.384 415.884Z"/>
	<path fill="#F6E5CC" d="M834.693 415.906L835.625 416.017C833.264 429.622 826.815 436.648 828.471 451.548C816.797 454.882 804.664 457.75 793.241 461.812C792.808 456.411 792.527 451.084 792.496 445.662C810.722 439.017 825.194 434.08 834.693 415.906Z"/>
	<path fill="#F6E5CC" d="M833.576 381.846C834.186 379.647 834.82 377.381 836.948 376.163C838.659 375.183 841.31 374.804 843.162 375.576C844.679 376.208 845.63 377.579 846.124 379.09C847.809 384.239 845.573 391.882 843.087 396.555C842.296 398.043 841.11 400.077 839.308 400.438C837.64 400.772 836.113 400.033 834.845 399.008C834.456 398.693 834.098 398.344 833.733 398.002C833.39 396.75 833.032 395.492 832.761 394.222C832.373 392.395 832.775 391.617 833.739 390.08C835.073 390.074 836.133 389.966 837.306 390.713C837.441 392.081 836.644 392.765 835.918 393.89L836.172 394.558C837.424 394.749 838.246 394.918 839.488 394.552C841.654 392.714 842.323 389.995 842.687 387.264C843.029 384.697 843.054 382.209 841.375 380.112C838.196 378.946 837.097 380.992 834.195 381.707C833.99 381.758 833.782 381.799 833.576 381.846Z"/>
	<path fill="#8B3724" d="M784.524 448.012C787.072 447.056 789.875 446.429 792.496 445.662C792.527 451.084 792.808 456.411 793.241 461.812C790.284 462.59 787.311 463.485 784.323 464.121C784.444 458.754 784.46 453.38 784.524 448.012Z"/>
	<path fill="#01284E" d="M830.03 388.127C831.68 388.551 832.543 388.844 833.739 390.08C832.775 391.617 832.373 392.395 832.761 394.222C833.032 395.492 833.39 396.75 833.733 398.002L832.874 398.393C832.439 397.41 832.138 396.558 831.936 395.501L831.357 395.572L831.541 394.873C830.479 396.822 831.29 398.972 830.648 401.057C829.986 396.726 829.981 392.496 830.03 388.127Z"/>
	<path fill="#2396C8" d="M834.693 415.906C834.132 411.373 833.28 405.142 834.065 400.634C836.43 403.767 836.362 411.067 835.844 414.897C835.793 415.274 835.704 415.645 835.625 416.017L834.693 415.906Z"/>
	<path fill="#AFD7EA" d="M759.88 632.371C767.022 610.835 773.853 589.237 780.528 567.55C782.882 559.901 785.466 552.359 787.858 544.735C789.989 537.944 791.808 530.894 794.874 524.451Q796.033 522.025 797.401 519.71Q798.77 517.396 800.338 515.211Q801.906 513.027 803.661 510.99Q805.417 508.953 807.345 507.079C814.78 499.937 825.712 493.958 836.307 494.446C840.663 494.647 844.696 496.995 847.524 500.233C854.312 508.008 855.897 523.028 855.294 532.986C853.066 569.716 820.936 636.149 801.147 668.254C795.974 676.647 790.572 686.181 783.086 692.717C778.276 696.917 773.132 699.451 766.589 698.9C760.671 698.402 754.826 695.991 749.495 693.514C727.376 683.236 711.337 666.687 695.53 648.714C703.469 641.414 712.014 633.636 717.829 624.51C720.693 621.247 722.827 617.254 725.221 613.631C740.112 622.792 750.442 628.705 757.642 645.476C758.539 647.565 764.025 663.08 764.659 663.466L764.923 663.958C765.532 663.731 765.913 663.796 766.153 663.118C767.886 658.228 760.547 643.215 757.974 638.785C756.969 637.054 755.846 635.325 754.644 633.724Q755.373 633.947 756.088 634.211Q756.802 634.474 757.501 634.778Q758.2 635.082 758.88 635.425Q759.561 635.768 760.221 636.149Q760.881 636.53 761.518 636.948Q762.155 637.366 762.768 637.819Q763.38 638.272 763.966 638.759Q764.552 639.246 765.11 639.766Q765.667 640.285 766.194 640.836Q766.721 641.386 767.216 641.965Q767.711 642.545 768.173 643.151Q768.634 643.757 769.06 644.389Q769.487 645.021 769.877 645.675Q770.267 646.33 770.619 647.006Q770.971 647.682 771.284 648.376Q771.598 649.071 771.871 649.782C772.989 652.702 773.791 655.958 775.765 658.422C777.043 658.576 776.96 658.482 777.995 657.684C778.426 656.516 778.503 655.72 778.134 654.509C775.248 645.05 768.251 637.259 759.88 632.371Z"/>
	<path fill="#2396C8" d="M444.083 774.613L444.396 774.658C445.048 775.689 443.023 780.09 442.58 781.46C438.178 795.069 435.356 814.936 433.22 829.39C428.675 860.152 425.423 889.52 423.081 920.502C416.226 921.28 409.133 921.019 402.238 921.014C391.175 921.006 380.117 920.96 369.07 920.261L367.28 919.921C367.126 919.62 366.892 919.348 366.817 919.018C366.271 916.639 368.176 898.844 368.41 894.945C369.486 877.063 370.125 859.121 371.024 841.226C371.567 830.411 372.76 819.457 372.594 808.635C395.144 795.254 417.993 779.984 444.083 774.613Z"/>
	<path fill="#2396C8" d="M461.465 621.913C469.1 622.343 476.879 624.014 484.406 625.315Q499.58 627.911 514.785 630.316L551.014 635.777C556.848 636.683 563.043 637.246 568.723 638.868C575.089 646.465 588.456 677.337 593.362 688.056C552.743 682.181 512.421 674.517 471.694 669.322C469.865 653.351 465.4 637.47 461.465 621.913Z"/>
	<path fill="#2396C8" d="M416.774 579.663L417.403 579.578C417.718 579.744 418.113 579.809 418.349 580.076C419.977 581.925 446.775 641.825 449.223 648.131C427.959 658.382 410.468 673.401 392.311 688.231C386.047 692.837 380.416 698.29 374.122 702.88C377.587 672.823 376.385 614.922 393.519 591.745C399.32 583.898 407.545 581.019 416.774 579.663Z"/>
	<path fill="#F6E5CC" d="M601.611 502.417L602.427 501.284C603.665 501.549 603.961 502.187 604.581 503.22C605.621 504.951 605.638 506.876 605.142 508.789C609.413 517.808 624.382 534.276 634.056 537.858C634.717 538.103 635.338 538.189 636.033 538.275L636.861 537.718C635.307 531.878 622.657 532.454 623.083 521.745L623.61 521.231L625.059 521.945C629.438 527.42 645.649 530.701 653.304 538.275C662.989 547.857 660.072 556.581 665.539 564.73C669.899 571.23 678.724 576.763 684.683 581.902C690.747 587.133 696.63 592.574 702.641 597.865C695.67 608.562 688.334 617.702 679.112 626.628C672.447 619.094 666.174 611.073 660.009 603.125C655.713 597.586 651.676 591.419 646.388 586.769C641.939 582.858 636.405 580.523 631.303 577.605C625.001 574.001 619.37 569.371 614.325 564.165C611.397 561.147 607.665 557.642 606.242 553.582C605.86 552.493 605.557 551.349 606.053 550.259C609.131 551.175 613.922 560.685 615.777 563.565C616.362 563.422 616.126 563.545 616.643 563.107C617.46 562.414 617.19 561.504 616.886 560.578C614.613 553.667 605.955 544.437 604.809 537.342C604.413 534.893 604.909 531.787 605.06 529.295C606.393 531.65 616.6 545.914 618.172 546.35C618.859 546.541 619.15 546.225 619.751 545.94C619.787 545.799 619.841 545.66 619.858 545.515C620.135 543.143 604.187 522.786 601.604 518.931C600.977 513.455 601.318 507.909 601.611 502.417Z"/>
	<path fill="#AEBE76" d="M99.2987 852.681C114.362 852.713 124.563 865.25 136.709 872.269C142.688 875.725 149.4 877.86 156.201 878.95C172.496 881.56 187.254 877.766 200.521 868.211C209.812 876.827 218.923 885.647 228.12 894.364C222.355 901.461 218.073 910.334 213.541 918.276Q208.177 928.015 202.317 937.463C197.583 933.236 192.083 929.65 186.988 925.857Q169.176 912.558 151.091 899.634C130.903 884.905 111.369 869.252 91.0028 854.777C93.7847 853.87 96.3924 853.105 99.2987 852.681Z"/>
	<path fill="#AEBE76" d="M371.939 923.925Q392.842 924.163 413.746 924.138C417.669 938.588 419.754 953.756 422.245 968.522Q384.186 968.974 346.125 968.814L294.318 968.947C294.831 967.715 295.33 966.386 296.004 965.233C302.19 954.647 328.396 953.394 339.55 950.107C354.431 945.721 364.585 937.547 371.939 923.925Z"/>
	<path fill="#F6E5CC" d="M774.139 320.013C780.115 336.479 788.173 349.35 803.47 358.743C809.129 362.218 815.305 365.296 820.586 369.324C820.484 371.903 820.58 374.897 819.758 377.35C817.613 383.754 810.179 390.927 805.355 395.421C799.551 400.828 791.893 406.255 783.596 406.116C781.77 406.085 778.936 405.776 777.582 404.393C773.399 400.118 774.425 397.153 766.887 396.715C765.137 396.613 763.491 396.719 761.821 397.249L761.233 397.943C762.951 399.943 767.62 400.614 770.175 401.229C765.999 401.502 761.87 400.303 757.587 400.535C755.898 400.145 754.41 399.9 753.236 398.604C755.333 390.265 761.604 381.525 763.79 372.165C765.387 365.328 763.212 360.217 762.852 353.607C762.344 344.301 769.954 328.349 774.139 320.013Z"/>
	<path fill="#01284E" d="M775.857 352.157C776.741 352.055 777.617 351.993 778.509 351.996C781.856 352.007 786.817 352.484 789.193 355.101C789.902 355.882 789.695 355.5 789.683 356.656C786.993 358.373 784.01 357.245 781.119 356.637C776.924 356.269 772.941 356.963 768.795 357.513C767.76 357.039 767.63 356.834 766.962 355.896L767.281 354.886C769.733 352.96 772.865 352.62 775.857 352.157Z"/>
	<path fill="#01284E" d="M779.042 369.852C780.256 370.005 781.505 370.244 782.445 371.113C783.057 371.679 783.475 372.423 783.55 373.246C783.756 375.521 782.645 376.722 781.206 378.283C780.452 378.243 779.903 378.168 779.227 377.777C778.075 377.113 777.388 376.087 777.221 374.766C776.952 372.636 777.778 371.396 779.042 369.852Z"/>
	<path fill="#AFD7EA" d="M83.8314 855.286C85.5014 855.485 86.5712 856.08 87.9455 857.037C99.8559 865.335 111.233 874.587 122.925 883.206L181.452 926.091C185.699 929.215 197.804 936.843 200.154 940.228C200.428 940.623 200.455 940.654 200.32 941.115C199.728 943.138 197.37 944.662 195.744 945.802L191.691 946.957C185.004 943.517 178.787 937.568 172.619 933.143C152.672 918.832 133.179 903.961 113.536 889.244C103.612 881.809 90.5732 873.564 82.1292 864.64C80.9201 863.362 79.8833 862.013 80.1778 860.133C80.5145 857.982 82.2687 856.593 83.8314 855.286Z"/>
	<path fill="#AFD7EA" d="M322.206 972.236C355.574 971.3 389.081 973.498 422.42 972.01C422.616 975.478 423.194 979.283 421.716 982.524C419.095 984.374 393.139 983.366 388.25 983.337L318.246 983.367C311.011 983.405 295.385 984.808 289.138 983.114C287.721 981.896 286.71 980.527 286.591 978.587C286.484 976.85 287.114 974.726 288.362 973.472C290.213 971.611 318.057 972.32 322.206 972.236Z"/>
	<path fill="#F6E5CC" d="M621.918 503.784C639.515 505.871 651.404 515.032 661.643 528.957C663.825 531.925 665.265 535.98 668.068 538.383C671.44 541.275 675.812 542.727 679.51 545.146C687.237 550.199 694.398 556.223 701.57 562.024L693.967 575.668C692.656 577.956 691.528 580.409 690.33 582.762C684.078 577.557 671.624 568.815 667.815 562.042C663.87 555.028 664.629 547.141 658.946 540.285C652.245 532.2 640.596 525.68 632.084 519.401C626.229 515.081 623.018 511.062 621.918 503.784Z"/>
	<path fill="#AFD7EA" d="M769.899 495.232L770.443 495.742C768.73 502.722 762.802 510.193 759.222 516.412Q754.528 524.571 750.541 533.099C739.199 556.91 729.635 581.55 718.812 605.594L714.111 602.067L708.112 597.522C719.924 577.703 729.36 555.847 739.509 535.117C744.386 525.154 754.486 502.907 762.026 495.57L769.899 495.232Z"/>
	<path fill="#F6E5CC" d="M417.366 563.163C418.471 563.617 418.786 563.66 419.411 564.72C422.702 570.3 424.995 577.325 427.652 583.287C431.223 591.3 466.938 671.693 467.965 672.175C468.867 672.597 482.707 673.535 485.088 673.891C498.848 675.948 592.336 690.106 595.323 692.113C595.926 693.628 595.89 694.707 595.794 696.288C563.702 690.599 531.421 685.912 499.236 680.751C488.078 678.962 476.759 677.728 465.683 675.505C461.692 666.236 456.972 657.278 452.741 648.118Q435.743 611.804 420.203 574.843C419.177 572.369 416.168 567.234 416.205 564.706C416.216 563.959 416.865 563.643 417.366 563.163Z"/>
	<path fill="#AFD7EA" d="M705.27 599.721C711.063 603.465 716.014 608.294 721.964 611.874C714.299 626.413 702.82 637.684 690.858 648.657L690.007 648.819C684.903 645.481 679.283 638.796 674.936 634.302C687.857 625.1 696.661 612.778 705.27 599.721Z"/>
	<path fill="#AFD7EA" d="M828.847 454.63C830.136 456.264 834.848 467.066 836.572 470.027C820.333 474.817 804.851 480.549 789.124 486.774L783.797 488.98C787.082 481.527 787.246 474.927 787.412 466.928C801.264 463.061 815.253 459.331 828.847 454.63Z"/>
	<path fill="#2396C8" d="M598.862 463.697C602.603 468.676 616.354 497.474 618.453 503.62C618.158 507.997 620.152 512.674 623.053 515.895C624.13 517.09 625.323 518.198 626.491 519.304C625.913 519.913 625.763 519.815 624.972 519.974C624.397 519.232 623.777 518.33 623.048 517.737C622.131 516.993 621.31 516.925 620.228 517.18C619.886 519.143 621.353 520.621 620.812 522.615C611.487 516.306 598.446 481.829 592.086 470.057C593.059 467.142 596.452 465.363 598.862 463.697Z"/>
	<path fill="#AFD7EA" d="M707.373 558.815C711.3 562.05 715.477 564.762 719.747 567.507C715.719 577.007 710.665 586.482 705.266 595.284C700.778 592.296 696.704 588.135 692.711 584.513Q699.956 571.615 707.373 558.815Z"/>
	<path fill="#279583" d="M430.976 583.95C432.14 584.982 439.238 595.936 440.835 598.207C446.125 605.727 452.764 613.477 457.034 621.57C461.648 630.315 465.464 652.378 467.339 663.097C466.579 662.475 466.048 661.533 465.633 660.654C459.303 647.227 453.742 633.436 447.443 620.002C442.579 609.627 434.25 594.255 430.976 583.95Z"/>
	<path fill="#AFD7EA" d="M783.383 468.492C783.949 470.414 783.781 472.68 783.739 474.67C783.615 480.652 782.569 485.861 778.118 490.134C772.438 491.573 767.493 492.424 761.604 491.615L761.043 490.712C760.966 489.363 761.23 488.403 761.789 487.195C765.307 479.589 775.539 471.193 783.383 468.492Z"/>
	<path fill="#8B3724" d="M132.611 492.166Q131.898 375.24 132.384 258.319L132.047 110.599C132.036 101.106 130.927 44.6868 132.883 39.6375C133.819 39.0015 133.903 39.0814 134.965 39.0224C143.206 38.5646 151.599 38.8807 159.856 38.903L202.319 39.0114L326.394 39.0402L395.983 39.0095C406.367 38.9655 422.253 37.9103 432.019 39.2319C432.871 39.3472 433.68 39.2804 434.147 40.0691C435.264 41.9533 434.99 44.4852 434.934 46.5987C434.575 60.1827 434.956 73.8424 434.904 87.4359Q434.556 136.581 434.791 185.724L434.817 420.424L434.962 503.64C434.958 512.835 436.176 535.244 434.029 542.659C432.616 543.926 431.451 544.735 429.507 544.922C423.201 545.527 416.413 545.035 410.066 545.009L372.847 544.919L239.477 544.883C240.416 549.316 240.947 553.606 240.566 558.143C239.733 568.047 234.547 577.126 226.992 583.484C213.397 594.927 195.239 596.716 178.22 595.374C176.323 602.449 174.28 629.324 172.771 632.351L173.214 634.988C176.127 636.59 232.02 635.395 241.147 635.873C241.691 646.668 241.434 657.566 241.446 668.375L241.437 726.638C276.187 726.722 310.928 727.323 345.683 727.01C344.184 728.558 342.763 729.875 340.963 731.066C329.7 730.45 318.123 730.923 306.832 730.917L241.447 730.94C241.294 750.77 241.598 770.6 241.318 790.431C221.856 790.918 202.296 790.437 182.821 790.395L88.7667 790.572C88.3348 783.599 88.6227 776.429 88.6005 769.433L88.4227 730.484C61.8614 730.311 35.2807 731.023 8.72898 730.815C7.06943 730.802 6.24685 731.113 5.07729 729.916C4.75058 728.621 4.72047 728.067 5.16456 726.802C8.57893 725.693 78.6569 726.499 88.363 726.487L88.5002 635.503L131.768 635.533C130.012 608.202 119.359 577.833 107.898 553.178C103.159 554.583 98.4034 555.808 93.4667 556.234C83.608 557.085 72.5698 555.24 64.9267 548.551C42.5257 528.944 62.81 503.379 57.2159 487.749C52.8973 475.683 38.134 469.058 37.459 455.379C37.1586 449.292 40.1605 443.526 44.2431 439.18C49.4158 433.673 56.7589 429.759 64.3921 429.671C69.9581 429.607 74.618 431.58 78.4859 435.561C84.8425 442.102 83.2215 450.612 82.9356 458.843C91.1233 471.295 110.916 467.387 123.91 480.125C127.52 483.664 130.016 487.871 132.611 492.166Z"/>
	<path fill="#AFD7EA" d="M154.22 60.2911C171.977 59.4193 190.05 60.0015 207.841 59.9565L327.897 60.1658L331.598 59.9097C340.825 60.5728 350.333 60.1136 359.597 60.0718C361.198 60.0224 362.808 59.9241 364.408 60.0273C380.894 60.3164 397.458 60.2326 413.946 60.063L414.422 61.7088C415.302 63.0513 415.171 63.9136 414.922 65.5154C414.786 66.3953 414.52 67.391 414.091 68.1743C413.823 88.5507 414.226 108.959 414.316 129.338L414.438 229.381L414.436 266.443C414.432 271.609 415.118 277.981 414.124 282.981C414.272 285.053 414.357 287.02 414.172 289.091L414.426 328.602C414.457 334.576 413.816 341.443 414.649 347.316C414.917 349.414 414.883 351.156 414.564 353.247Q414.336 370.925 414.445 388.604C414.451 393.555 413.782 399.585 414.742 404.364C414.824 406.211 414.785 407.877 414.488 409.704C413.684 447.762 414.13 485.994 414.33 524.069C411.133 524.078 407.839 523.919 404.655 524.118C375.297 523.25 345.699 523.543 316.338 524.058C314.694 524.171 313.017 524.115 311.367 524.116C306.034 523.639 300.397 523.949 295.028 523.953L265.479 523.995L260.875 524.079C250.32 523.732 239.642 524.032 229.075 524.011C226.529 518.82 224.631 513.756 223.202 508.148C222.844 506.754 222.654 505.387 222.476 503.963C220.809 484.97 232.497 468.347 240.422 451.929L230.365 451.084C231.21 440.331 232.262 434.444 229.206 423.85C221.128 441.266 207.171 457.844 193.223 470.896C186.783 476.923 179.74 482.268 173.87 488.897C165.833 497.972 160.109 509.35 153.642 519.572L153.921 364.665L153.898 360.334C153.175 339.608 153.906 318.736 153.957 297.995L153.965 293.848C154.385 283.197 154.25 272.372 154.047 261.714L153.993 257.581Q153.588 158.934 154.22 60.2911Z"/>
	<path fill="#AFD7EA" d="M154.22 60.2911C171.977 59.4193 190.05 60.0015 207.841 59.9565L327.897 60.1658L331.598 59.9097C340.825 60.5728 350.333 60.1136 359.597 60.0718C361.198 60.0224 362.808 59.9241 364.408 60.0273C380.894 60.3164 397.458 60.2326 413.946 60.063L414.422 61.7088C415.302 63.0513 415.171 63.9136 414.922 65.5154C414.786 66.3953 414.52 67.391 414.091 68.1743C404.379 77.7316 395.829 88.8152 387.027 99.2029Q368.654 120.702 350.039 141.991L205.266 306.643Q187.792 326.17 170.527 345.881C165.165 351.975 159.86 359.182 153.921 364.665L153.898 360.334C153.175 339.608 153.906 318.736 153.957 297.995L153.965 293.848C154.385 283.197 154.25 272.372 154.047 261.714L153.993 257.581Q153.588 158.934 154.22 60.2911Z"/>
	<path fill="#AFD7EA" d="M154.22 60.2911C171.977 59.4193 190.05 60.0015 207.841 59.9565L327.897 60.1658Q265.133 130.259 203.222 201.108L169.897 239.685C164.763 245.6 159.725 252.26 153.993 257.581Q153.588 158.934 154.22 60.2911Z"/>
	<path fill="#AFD7EA" d="M327.897 60.1658L331.598 59.9097C340.825 60.5728 350.333 60.1136 359.597 60.0718C354.81 66.1778 349.42 71.8898 344.274 77.6989L319.013 106.324L239.342 197.097Q207.42 233.915 174.727 270.05C167.757 277.781 161.426 286.673 153.965 293.848C154.385 283.197 154.25 272.372 154.047 261.714L153.993 257.581C159.725 252.26 164.763 245.6 169.897 239.685L203.222 201.108Q265.133 130.259 327.897 60.1658Z"/>
	<path fill="#2396C8" d="M327.897 60.1658L331.598 59.9097Q303.827 92.5289 275.378 124.559C268.148 132.677 260.647 140.557 253.493 148.741Q220.787 186.733 187.587 224.293C182.208 230.464 159.561 258.591 154.047 261.714L153.993 257.581C159.725 252.26 164.763 245.6 169.897 239.685L203.222 201.108Q265.133 130.259 327.897 60.1658Z"/>
	<path fill="#2396C8" d="M414.422 61.7088C415.302 63.0513 415.171 63.9136 414.922 65.5154C414.786 66.3953 414.52 67.391 414.091 68.1743C404.379 77.7316 395.829 88.8152 387.027 99.2029Q368.654 120.702 350.039 141.991L205.266 306.643Q187.792 326.17 170.527 345.881C165.165 351.975 159.86 359.182 153.921 364.665L153.898 360.334L346.608 140.311L393.86 86.02C400.642 78.1757 408.917 70.4429 414.422 61.7088Z"/>
	<path fill="#2396C8" d="M359.597 60.0718C361.198 60.0224 362.808 59.9241 364.408 60.0273L203.617 242.693L171.508 278.831C166.012 285.076 160.527 292.926 153.957 297.995L153.965 293.848C161.426 286.673 167.757 277.781 174.727 270.05Q207.42 233.915 239.342 197.097L319.013 106.324L344.274 77.6989C349.42 71.8898 354.81 66.1778 359.597 60.0718Z"/>
	<path fill="#AFD7EA" d="M414.564 353.247Q414.336 370.925 414.445 388.604C414.451 393.555 413.782 399.585 414.742 404.364C414.824 406.211 414.785 407.877 414.488 409.704C413.684 447.762 414.13 485.994 414.33 524.069C411.133 524.078 407.839 523.919 404.655 524.118C375.297 523.25 345.699 523.543 316.338 524.058C314.694 524.171 313.017 524.115 311.367 524.116C306.034 523.639 300.397 523.949 295.028 523.953L265.479 523.995C271.833 515.947 278.776 508.289 285.481 500.529C305.16 477.751 325.583 455.627 345.23 432.816L391.488 379.604C398.995 370.925 406.059 360.904 414.564 353.247Z"/>
	<path fill="#AFD7EA" d="M414.488 409.704C413.684 447.762 414.13 485.994 414.33 524.069C411.133 524.078 407.839 523.919 404.655 524.118C375.297 523.25 345.699 523.543 316.338 524.058C321.261 515.018 340.097 496.15 347.998 487.054C370.283 461.398 391.984 435.165 414.488 409.704Z"/>
	<path fill="#2396C8" d="M311.367 524.116C328.409 502.114 348.038 481.934 366.192 460.824Q383.139 440.767 400.482 421.05C405.244 415.537 409.575 409.486 414.742 404.364C414.824 406.211 414.785 407.877 414.488 409.704C391.984 435.165 370.283 461.398 347.998 487.054C340.097 496.15 321.261 515.018 316.338 524.058C314.694 524.171 313.017 524.115 311.367 524.116Z"/>
	<path fill="#AFD7EA" d="M414.172 289.091L414.426 328.602C414.457 334.576 413.816 341.443 414.649 347.316C414.917 349.414 414.883 351.156 414.564 353.247C406.059 360.904 398.995 370.925 391.488 379.604L345.23 432.816C325.583 455.627 305.16 477.751 285.481 500.529C278.776 508.289 271.833 515.947 265.479 523.995L260.875 524.079C250.32 523.732 239.642 524.032 229.075 524.011C226.529 518.82 224.631 513.756 223.202 508.148C248.085 480.52 271.941 451.89 296.26 423.763L365.563 345.088C381.829 326.531 397.252 307.048 414.172 289.091Z"/>
	<path fill="#2396C8" d="M260.875 524.079L370.066 399.199Q384.508 382.661 398.723 365.928C403.923 359.777 408.876 352.918 414.649 347.316C414.917 349.414 414.883 351.156 414.564 353.247C406.059 360.904 398.995 370.925 391.488 379.604L345.23 432.816C325.583 455.627 305.16 477.751 285.481 500.529C278.776 508.289 271.833 515.947 265.479 523.995L260.875 524.079Z"/>
	<path fill="#2396C8" d="M414.124 282.981C414.272 285.053 414.357 287.02 414.172 289.091C397.252 307.048 381.829 326.531 365.563 345.088L296.26 423.763C271.941 451.89 248.085 480.52 223.202 508.148C222.844 506.754 222.654 505.387 222.476 503.963Q278.937 437.974 336.16 372.642L387.323 314.416C396.377 304.013 405.751 293.956 414.124 282.981Z"/>
	<path fill="#AFD7EA" d="M163.209 639.252C187.909 639.04 212.63 639.448 237.333 639.508Q237.59 712.967 237.05 786.425L166.033 786.279L92.5132 786.543L92.4867 639.36C116.032 638.942 139.649 639.407 163.209 639.252Z"/>
	<path fill="#D89C46" d="M136.028 42.8803L329.813 42.5179C363.711 42.5474 397.722 43.0515 431.611 42.435L431.539 376.611Q432.009 434.923 431.638 493.235Q431.596 508.221 431.741 523.207C431.818 529.245 432.255 535.454 431.804 541.465Q376.696 541.608 321.589 541.107L269.085 541.047C258.778 541.102 248.423 541.481 238.121 541.306C236.011 536.698 233.78 532.247 231.358 527.795L366.322 527.632C382.229 527.627 398.295 528.223 414.174 527.836C415.642 527.801 416.824 527.81 418.166 527.136L418.363 525.773C416.843 519.696 417.52 512.462 417.519 506.213L417.51 477.698L417.847 348.096L418.027 150.742L417.835 92.4976C417.772 81.5302 417.46 70.5297 417.737 59.5655C417.404 58.3813 417.454 57.595 416.192 57.0809C412.595 55.6155 347.882 56.6525 339.066 56.6496L150.17 56.5148L150.188 346.917L150.473 461.506C150.499 482.304 150.915 503.188 150.33 523.974C145.246 531.862 140.056 539.749 136.482 548.468C135.679 518.112 135.969 487.812 135.943 457.449Q135.443 389.748 135.953 322.048L136.028 42.8803Z"/>
	<path fill="#AEBE76" d="M227.928 454.01L235.359 454.66C222.948 478.675 210.804 495.322 224.485 522.469C228.322 530.083 233.343 537.211 235.568 545.536C237.846 554.062 237.388 562.899 232.866 570.632C226.211 582.012 215.79 587.201 203.459 590.402C195.401 592.05 187.522 592.276 179.335 591.943C179.368 591.04 179.408 590.15 179.48 589.249C182.78 547.922 194.969 482.08 227.928 454.01Z"/>
	<path fill="#AEBE76" d="M61.1839 433.582C63.0584 433.431 64.8325 433.35 66.7054 433.572C86.1577 435.87 73.9937 455.528 82.6626 465.146C92.8149 476.41 110.516 468.963 125.584 487.764C110.54 492.803 102.206 504.369 94.4562 517.354C81.8824 495.825 70.4897 472.867 60.828 449.908C59.8675 447.626 58.3209 443.453 55.9758 442.498L55.2216 443.131C54.7409 444.65 55.3587 445.908 55.8394 447.349C65.5208 472.366 78.0256 495.677 90.7787 519.215C78.7579 521.833 68.9149 525.726 59.4556 533.713C54.2467 515.269 64.6998 502.109 61.3291 488.029C58.3756 475.692 44.7422 469.919 41.8148 458.072C40.6268 453.264 42.0634 448.826 44.6339 444.737C48.6857 438.293 53.9427 435.247 61.1839 433.582Z"/>
	<path fill="#F6E5CC" d="M133.377 525.978C133.251 540.956 131.6 559.852 139.618 573.13C146.659 584.789 162.091 591.255 174.712 594.378C171.373 606.039 170.54 619.502 169.728 631.57C169.532 633.145 169.61 633.984 168.636 635.264C158.494 636.807 146.333 635.043 135.865 635.629C132.623 606.777 123.551 578.679 111.641 552.314C121.674 545.316 127.657 536.649 133.377 525.978Z"/>
	<path fill="#AEBE76" d="M227.782 433.844L228.313 434.418C229.413 439.837 228.38 445.592 227.815 451.041C204.361 470.737 192.267 500.98 185.234 530.018C183.266 538.14 182.249 546.476 180.071 554.545C178.039 552.153 176.438 549.446 174.764 546.799C170.853 539.873 167.74 532.442 166.066 524.646C165.014 519.744 164.229 514.14 165.335 509.185C168.897 493.23 193.168 476.855 204.532 464.91C213.484 455.5 220.702 444.681 227.782 433.844Z"/>
	<path fill="#AEBE76" d="M160.727 514.878C161.4 515.596 163.391 528.651 163.981 530.63C167.201 541.422 172.659 550.995 179.199 560.067C178.281 570.361 176.255 580.729 175.108 591.037C170.878 589.747 166.83 588.306 162.743 586.614C159.805 585.279 156.866 583.75 154.148 582.011C147.247 577.595 141.226 571.736 139.549 563.382C136.222 546.807 152.017 527.988 160.727 514.878Z"/>
	<path fill="#AEBE76" d="M125.511 491.975C125.796 491.976 126.082 491.953 126.366 491.978C127.678 492.092 128.454 492.503 129.198 493.599C133.494 499.935 133.158 510.075 131.554 517.239C129.4 526.859 122.536 541.168 113.747 546.383C112.39 547.188 111.285 547.529 109.755 547.151L108.546 545.087C104.414 537.368 100.325 529.423 96.8253 521.399C104.262 508.874 110.873 497.029 125.511 491.975Z"/>
	<path fill="#AEBE76" d="M88.7238 523.074C90.0365 522.904 90.9849 522.83 92.3088 523.059C96.2357 526.67 103.47 544.214 106.617 550.008C97.6566 552.092 89.5865 552.921 80.4355 551.855Q79.2311 551.571 78.0381 551.242C70.0272 549.07 64.8698 544.696 60.7935 537.574C67.6228 529.628 78.8187 525.476 88.7238 523.074Z"/>
	<path fill="#8B3724" d="M519.905 232.376C520.704 228.37 521.967 224.712 523.574 220.959C548.784 162.067 589.278 100.908 644.949 66.9085C653.024 61.977 661.299 57.3558 670.117 53.8755C695.25 43.9562 711.13 44.0635 735.805 54.8697C773.683 71.4579 809.855 103.332 834.665 136.136C850.319 156.835 863.297 179.664 874.602 202.971C878.815 211.657 883.262 220.344 886.808 229.321C885.165 233.692 882.843 237.695 880.397 241.656C868.713 259.983 855.28 278.101 840.114 293.707L836.178 293.198C830.807 291.576 824.494 291.667 818.934 291.595L813.628 292.003C803.11 292.301 788.287 295.133 780.36 302.735C780.198 302.891 780.061 303.072 779.912 303.241C778.626 304.401 777.424 305.586 776.484 307.051C775.054 309.279 769.753 320.722 768.915 323.026C768.377 325.281 767.516 327.015 766.358 329.015Q762.84 337.306 760.222 345.924C759.897 347.634 759.736 349.585 758.95 351.139C753.016 353.325 746.897 355.492 740.782 357.112C727.861 360.534 713.65 362.063 700.316 360.844C671.794 358.236 637.814 342.98 613.32 328.607Q610.352 326.854 607.431 325.024Q604.51 323.195 601.638 321.29Q598.766 319.385 595.943 317.406Q593.121 315.427 590.352 313.375Q587.582 311.324 584.867 309.201Q582.151 307.078 579.492 304.885Q576.833 302.693 574.231 300.432Q571.63 298.171 569.088 295.843Q566.546 293.515 564.066 291.122Q561.585 288.729 559.168 286.272Q556.75 283.815 554.398 281.297Q552.045 278.778 549.758 276.199Q547.472 273.62 545.253 270.982Q543.034 268.345 540.885 265.65Q538.735 262.956 536.656 260.207Q534.578 257.457 532.571 254.655C527.649 247.838 522.046 240.632 519.905 232.376Z"/>
	<path fill="#AFD7EA" d="M713.09 211.114C720.505 203.361 727.267 194.767 734.301 186.654L792.365 118.428C793.082 119.288 793.902 120.127 794.437 121.111C824.745 153.204 846.797 185.975 862.852 227.357Q859.369 233.801 855.517 240.032Q851.666 246.263 847.459 252.259Q843.253 258.256 838.705 263.998Q834.157 269.741 829.283 275.209C824.259 280.916 818.329 286.062 813.628 292.003C803.11 292.301 788.287 295.133 780.36 302.735C780.198 302.891 780.061 303.072 779.912 303.241C778.626 304.401 777.424 305.586 776.484 307.051C775.054 309.279 769.753 320.722 768.915 323.026C750.879 331.133 732.719 336.84 712.96 338.577L713.129 261.768C713.161 246.538 713.902 230.989 712.888 215.81C712.821 214.246 712.985 212.674 713.09 211.114Z"/>
	<path fill="#2396C8" d="M713.09 211.114C720.505 203.361 727.267 194.767 734.301 186.654L792.365 118.428C793.082 119.288 793.902 120.127 794.437 121.111Q766.934 153.925 738.837 186.232C732.401 193.744 719.709 210.192 712.888 215.81C712.821 214.246 712.985 212.674 713.09 211.114Z"/>
	<path fill="#D89C46" d="M519.905 232.376C520.704 228.37 521.967 224.712 523.574 220.959C548.784 162.067 589.278 100.908 644.949 66.9085C653.024 61.977 661.299 57.3558 670.117 53.8755C695.25 43.9562 711.13 44.0635 735.805 54.8697C773.683 71.4579 809.855 103.332 834.665 136.136C850.319 156.835 863.297 179.664 874.602 202.971C878.815 211.657 883.262 220.344 886.808 229.321C885.165 233.692 882.843 237.695 880.397 241.656C868.713 259.983 855.28 278.101 840.114 293.707L836.178 293.198C830.807 291.576 824.494 291.667 818.934 291.595C824.542 285.295 830.553 279.364 836.128 273.036C847.854 259.727 859.433 243.98 866.416 227.613C864.16 219.435 860.265 211.272 856.613 203.626C841.48 171.944 821.468 144.178 797.37 118.695C777.269 97.4394 751.722 79.1603 724.384 68.5468C720.293 66.9583 715.073 64.3509 710.685 64.2315C708.901 69.6976 709.992 119.6 709.965 129.078L709.685 338.702L697.344 338.378L697.322 249.629Q697.416 242.749 697.326 235.869Q697.718 169.526 697.417 103.183C697.419 97.6889 698.324 66.3383 697.254 63.1689C691.274 61.5332 666.742 74.0826 659.925 77.9704C610.832 105.965 569.407 162.166 545.621 212.509C542.869 218.333 539.678 224.264 537.396 230.275C557.509 273.883 614.12 316.026 658.433 332.433C676.699 339.196 697.285 343.863 716.812 342.2C726.485 341.376 736.651 339.383 745.811 336.125C749.609 334.774 763.541 328.369 766.358 329.015Q762.84 337.306 760.222 345.924C759.897 347.634 759.736 349.585 758.95 351.139C753.016 353.325 746.897 355.492 740.782 357.112C727.861 360.534 713.65 362.063 700.316 360.844C671.794 358.236 637.814 342.98 613.32 328.607Q610.352 326.854 607.431 325.024Q604.51 323.195 601.638 321.29Q598.766 319.385 595.943 317.406Q593.121 315.427 590.352 313.375Q587.582 311.324 584.867 309.201Q582.151 307.078 579.492 304.885Q576.833 302.693 574.231 300.432Q571.63 298.171 569.088 295.843Q566.546 293.515 564.066 291.122Q561.585 288.729 559.168 286.272Q556.75 283.815 554.398 281.297Q552.045 278.778 549.758 276.199Q547.472 273.62 545.253 270.982Q543.034 268.345 540.885 265.65Q538.735 262.956 536.656 260.207Q534.578 257.457 532.571 254.655C527.649 247.838 522.046 240.632 519.905 232.376Z"/>
	<path fill="#8B3724" d="M519.905 232.376C520.704 228.37 521.967 224.712 523.574 220.959C548.784 162.067 589.278 100.908 644.949 66.9085C653.024 61.977 661.299 57.3558 670.117 53.8755C695.25 43.9562 711.13 44.0635 735.805 54.8697C773.683 71.4579 809.855 103.332 834.665 136.136C850.319 156.835 863.297 179.664 874.602 202.971C878.815 211.657 883.262 220.344 886.808 229.321C885.165 233.692 882.843 237.695 880.397 241.656C868.713 259.983 855.28 278.101 840.114 293.707L836.178 293.198C851.871 275.897 865.036 257.195 878.225 238.003C879.612 235.183 881.18 232.468 882.733 229.738C869.143 195.811 846.093 154.966 822.519 126.863C816.678 119.899 810.246 113.613 803.715 107.31C782.294 86.6358 759.179 68.891 731.618 57.1633C709.054 47.5618 693.916 48.3653 671.352 57.4828C615.404 80.0903 574.133 133.217 545.765 184.433C538.996 196.655 532.414 209.016 527.012 221.916C525.541 225.429 524.155 228.988 523.176 232.673C530.299 246.848 539.662 258.86 550.061 270.722Q552.982 274.115 556.016 277.407Q559.05 280.699 562.194 283.887Q565.337 287.075 568.586 290.155Q571.835 293.236 575.186 296.204Q578.538 299.173 581.987 302.027Q585.436 304.882 588.98 307.618Q592.524 310.354 596.158 312.969Q599.792 315.584 603.512 318.075Q607.232 320.566 611.034 322.931Q614.836 325.295 618.715 327.529Q622.595 329.764 626.547 331.866Q630.5 333.969 634.521 335.937Q638.543 337.905 642.628 339.736Q646.714 341.568 650.858 343.26Q655.003 344.952 659.203 346.504Q663.402 348.056 667.652 349.465C692.454 357.665 712.933 360.385 738.713 353.674C745.591 351.884 752.482 349.848 758.844 346.637C759.306 346.403 759.766 346.167 760.222 345.924C759.897 347.634 759.736 349.585 758.95 351.139C753.016 353.325 746.897 355.492 740.782 357.112C727.861 360.534 713.65 362.063 700.316 360.844C671.794 358.236 637.814 342.98 613.32 328.607Q610.352 326.854 607.431 325.024Q604.51 323.195 601.638 321.29Q598.766 319.385 595.943 317.406Q593.121 315.427 590.352 313.375Q587.582 311.324 584.867 309.201Q582.151 307.078 579.492 304.885Q576.833 302.693 574.231 300.432Q571.63 298.171 569.088 295.843Q566.546 293.515 564.066 291.122Q561.585 288.729 559.168 286.272Q556.75 283.815 554.398 281.297Q552.045 278.778 549.758 276.199Q547.472 273.62 545.253 270.982Q543.034 268.345 540.885 265.65Q538.735 262.956 536.656 260.207Q534.578 257.457 532.571 254.655C527.649 247.838 522.046 240.632 519.905 232.376Z"/>
	<path fill="#AFD7EA" d="M762.898 93.2158C763.737 93.6598 764.25 93.9223 764.911 94.6215C774.394 102.079 783.77 109.95 792.365 118.428L734.301 186.654C727.267 194.767 720.505 203.361 713.09 211.114C713.619 206.456 713.384 201.461 713.357 196.766C713.278 183.048 712.183 168.675 713.278 155.015C713.171 153.095 713.361 151.156 713.467 149.235C717.734 145.269 721.469 140.461 725.292 136.059C737.255 122.282 749.877 105.558 762.898 93.2158Z"/>
	<path fill="#2396C8" d="M762.898 93.2158C763.737 93.6598 764.25 93.9223 764.911 94.6215C760.457 101.297 754.335 107.36 749.036 113.41C737.055 127.087 724.481 140.704 713.278 155.015C713.171 153.095 713.361 151.156 713.467 149.235C717.734 145.269 721.469 140.461 725.292 136.059C737.255 122.282 749.877 105.558 762.898 93.2158Z"/>
	<path fill="#AFD7EA" d="M713.494 68.2012Q720.009 70.5925 726.373 73.3604Q732.737 76.1282 738.928 79.263Q745.119 82.3979 751.117 85.8891Q757.115 89.3802 762.898 93.2158C749.877 105.558 737.255 122.282 725.292 136.059C721.469 140.461 717.734 145.269 713.467 149.235L713.494 68.2012Z"/>
	<path fill="#AFD7EA" d="M541.128 230.348Q547.124 216.152 554.585 202.668C584.582 147.456 631.441 85.4493 694.454 66.8116C695.027 104.612 694.546 142.451 695.027 180.261L695.239 182.049C695.474 183.785 695.445 184.963 695.038 186.672C694.292 204.193 694.513 222.021 694.697 239.563C694.873 241.296 695.059 242.795 694.665 244.506C694.412 259.671 694.381 274.965 694.701 290.13L694.602 337.751C672.649 335.186 651.704 326.589 632.237 316.478C631.166 316.062 630.368 315.497 629.424 314.859C619.462 308.734 609.878 301.9 599.915 295.853C599.075 295.262 598.43 294.593 597.71 293.868C574.564 277.693 555.301 254.508 541.128 230.348Z"/>
	<path fill="#AFD7EA" d="M695.038 186.672C694.292 204.193 694.513 222.021 694.697 239.563C694.873 241.296 695.059 242.795 694.665 244.506C694.412 259.671 694.381 274.965 694.701 290.13L694.602 337.751C672.649 335.186 651.704 326.589 632.237 316.478C631.166 316.062 630.368 315.497 629.424 314.859C619.462 308.734 609.878 301.9 599.915 295.853C610.008 285.682 619.254 273.891 628.611 262.982Q652.24 235.233 676.437 207.978C682.657 200.919 688.626 193.548 695.038 186.672Z"/>
	<path fill="#AFD7EA" d="M694.665 244.506C694.412 259.671 694.381 274.965 694.701 290.13L694.602 337.751C672.649 335.186 651.704 326.589 632.237 316.478C637.782 309.25 644.377 302.487 650.34 295.576L694.665 244.506Z"/>
	<path fill="#2396C8" d="M694.697 239.563C694.873 241.296 695.059 242.795 694.665 244.506L650.34 295.576C644.377 302.487 637.782 309.25 632.237 316.478C631.166 316.062 630.368 315.497 629.424 314.859Q650.742 290.785 671.675 266.376C679.246 257.5 686.381 247.697 694.697 239.563Z"/>
	<path fill="#2396C8" d="M597.71 293.868Q629.54 256.333 662.087 219.417L681.889 196.718C686.219 191.747 690.382 186.519 695.239 182.049C695.474 183.785 695.445 184.963 695.038 186.672C688.626 193.548 682.657 200.919 676.437 207.978Q652.24 235.234 628.611 262.982C619.254 273.891 610.008 285.682 599.915 295.853C599.075 295.262 598.43 294.593 597.71 293.868Z"/>
</svg>
